<svg xmlns="http://www.w3.org/2000/svg" xmlns:xlink="http://www.w3.org/1999/xlink" width="221.982" height="198.708" viewBox="0 0 221.982 198.708">
  <defs>
    <clipPath id="clip-path">
      <rect width="221.982" height="198.708" fill="none"/>
    </clipPath>
  </defs>
  <g id="Component_1_1" data-name="Component 1 – 1" clip-path="url(#clip-path)">
    <path id="Path_1" data-name="Path 1" d="M114.512,51.743a59.316,59.316,0,0,0-59.248,59.248,58.5,58.5,0,0,0,12.672,36.527c1.636,2.083,3.355,4.077,5.175,6.188l.1.116c5.568,6.46,11.325,13.142,13.475,21.01a36.761,36.761,0,0,1,.527,7.923v4.526a7.5,7.5,0,0,0,7.5,7.5h39.272a7.5,7.5,0,0,0,7.5-7.5V182.7a31.938,31.938,0,0,1,.518-7.333c2.162-7.816,8.542-15.321,14.222-22l.245-.288c1.639-1.926,3.188-3.745,4.6-5.538a58.5,58.5,0,0,0,12.687-36.551A59.314,59.314,0,0,0,114.512,51.743Zm34.769,86.521c-1.235,1.571-2.691,3.282-4.233,5.093l-.3.355c-6.635,7.8-14.155,16.649-17.2,27.667a33.762,33.762,0,0,0-1.032,8.4H102.2a35.607,35.607,0,0,0-1.036-8.877c-3.05-11.164-10.557-19.875-16.59-26.876l-.1-.118c-1.705-1.977-3.315-3.845-4.746-5.665a43.652,43.652,0,0,1-9.462-27.254,44.245,44.245,0,1,1,88.49,0A43.65,43.65,0,0,1,149.281,138.264Z" transform="translate(-3.518 -30.31)"/>
    <path id="Path_2" data-name="Path 2" d="M133.984,196.91H94.713a7.5,7.5,0,1,0,0,15h39.272a7.5,7.5,0,1,0,0-15Z" transform="translate(-3.518 -30.31)"/>
    <path id="Path_3" data-name="Path 3" d="M124.166,214.018H104.531a7.5,7.5,0,0,0,0,15h19.635a7.5,7.5,0,1,0,0-15Z" transform="translate(-3.518 -30.31)"/>
    <path id="Path_4" data-name="Path 4" d="M218,103.491H192.127a7.5,7.5,0,0,0,0,15H218a7.5,7.5,0,0,0,0-15Z" transform="translate(-3.518 -30.31)"/>
    <path id="Path_5" data-name="Path 5" d="M44.394,110.991a7.5,7.5,0,0,0-7.5-7.5H11.018a7.5,7.5,0,0,0,0,15H36.894A7.5,7.5,0,0,0,44.394,110.991Z" transform="translate(-3.518 -30.31)"/>
    <path id="Path_7" data-name="Path 7" d="M174.693,160.569a7.5,7.5,0,0,0-10.608,10.606l18.3,18.3a7.5,7.5,0,1,0,10.608-10.606Z" transform="translate(-3.518 -30.31)"/>
    <path id="Path_8" data-name="Path 8" d="M54.317,61.408A7.5,7.5,0,1,0,64.925,50.8l-18.289-18.3a7.5,7.5,0,0,0-10.608,10.6Z" transform="translate(-3.518 -30.31)"/>
    <path id="Path_9" data-name="Path 9" d="M54.325,160.569l-18.3,18.3a7.5,7.5,0,0,0,10.608,10.6l18.3-18.3a7.5,7.5,0,1,0-10.608-10.6Z" transform="translate(-3.518 -30.31)"/>
    <path id="Path_10" data-name="Path 10" d="M169.393,63.6a7.478,7.478,0,0,0,5.3-2.2l18.292-18.3a7.5,7.5,0,0,0-10.607-10.6L164.09,50.8a7.5,7.5,0,0,0,5.3,12.8Z" transform="translate(-3.518 -30.31)"/>
  </g>
</svg>
