<svg xmlns="http://www.w3.org/2000/svg" width="512" height="459.13" viewBox="0 0 512 459.13">
  <g id="証明書アイコン" transform="translate(0 -26.435)">
    <rect id="Rectangle_1" data-name="Rectangle 1" width="157.906" height="26.318" transform="translate(114.087 148.892)" fill="#4b4b4b"/>
    <rect id="Rectangle_2" data-name="Rectangle 2" width="157.906" height="26.318" transform="translate(114.087 245.39)" fill="#4b4b4b"/>
    <rect id="Rectangle_3" data-name="Rectangle 3" width="96.498" height="26.318" transform="translate(114.087 341.888)" fill="#4b4b4b"/>
    <path id="Path_13" data-name="Path 13" d="M454.95,86.619C376.793,97.387,295.12,286.452,258.286,354.311c-9.252,17.049,12.264,31.278,21.786,14.958,6.862-11.728,44.291-85.6,44.291-85.6,40.77,1.345,55.806-27.123,39.511-44.8,54.794,1.131,81.952-29.025,66.412-47.324,16.345,5.175,30.5,1.713,51.521-9.749C526.664,157.321,524.573,75.421,454.95,86.619Z" fill="#4b4b4b"/>
    <path id="Path_14" data-name="Path 14" d="M351,307.03V443.15a7.342,7.342,0,0,1-7.316,7.324H42.407a7.346,7.346,0,0,1-7.316-7.324V68.85a7.348,7.348,0,0,1,7.316-7.325H343.682A7.342,7.342,0,0,1,351,68.85v67.961c11.48-15.463,23.147-29.144,35.09-40.5V68.851a42.419,42.419,0,0,0-42.407-42.416H42.407A42.419,42.419,0,0,0,0,68.851v374.3a42.416,42.416,0,0,0,42.407,42.414H343.682a42.416,42.416,0,0,0,42.407-42.414V284.7C377.967,295.4,365.87,303.114,351,307.03Z" fill="#4b4b4b"/>
  </g>
</svg>
