<svg xmlns="http://www.w3.org/2000/svg" xmlns:xlink="http://www.w3.org/1999/xlink" width="810" height="500" viewBox="0 0 810 500">
  <defs>
    <clipPath id="clip-path">
      <rect width="810" height="500" fill="none"/>
    </clipPath>
    <filter id="Path_42" x="460.5" y="105.135" width="324.365" height="324.365" filterUnits="userSpaceOnUse">
      <feOffset dx="1" dy="1" input="SourceAlpha"/>
      <feGaussianBlur stdDeviation="0.5" result="blur"/>
      <feFlood flood-color="#3895d9"/>
      <feComposite operator="in" in2="blur"/>
      <feComposite in="SourceGraphic"/>
    </filter>
  </defs>
  <g id="Component_9_1" data-name="Component 9 – 1" clip-path="url(#clip-path)">
    <g id="Rectangle_62" data-name="Rectangle 62" fill="#fff" stroke="#969696" stroke-width="3">
      <rect width="810" height="500" rx="36" stroke="none"/>
      <rect x="1.5" y="1.5" width="807" height="497" rx="34.5" fill="none"/>
    </g>
    <g transform="matrix(1, 0, 0, 1, 0, 0)" filter="url(#Path_42)">
      <g id="Path_42-2" data-name="Path 42" transform="translate(461 105.64)" fill="none">
        <path d="M160.682,0A160.682,160.682,0,1,1,0,160.682,160.683,160.683,0,0,1,160.682,0Z" stroke="none"/>
        <path d="M 160.6824951171875 5 C 150.1163635253906 5 139.5583648681641 6.064178466796875 129.3017272949219 8.162994384765625 C 119.3083648681641 10.20794677734375 109.4785461425781 13.25927734375 100.0853576660156 17.23220825195312 C 90.86163330078125 21.133544921875 81.96490478515625 25.96258544921875 73.64241027832031 31.58517456054688 C 65.39767456054688 37.15518188476562 57.64453125 43.5521240234375 50.59835815429688 50.59835815429688 C 43.5521240234375 57.64453125 37.15518188476562 65.39767456054688 31.58517456054688 73.64241027832031 C 25.96258544921875 81.96490478515625 21.133544921875 90.86163330078125 17.23220825195312 100.0853576660156 C 13.25927734375 109.4785461425781 10.20794677734375 119.3083648681641 8.162994384765625 129.3017272949219 C 6.064178466796875 139.5583648681641 5 150.1163635253906 5 160.6824951171875 C 5 171.2486267089844 6.064178466796875 181.8066253662109 8.162994384765625 192.0632171630859 C 10.20794677734375 202.056640625 13.25927734375 211.8864440917969 17.23220825195312 221.2795867919922 C 21.133544921875 230.5033569335938 25.96258544921875 239.4000396728516 31.58517456054688 247.7225341796875 C 37.15518188476562 255.9672698974609 43.5521240234375 263.720458984375 50.59835815429688 270.7666320800781 C 57.64453125 277.8128051757812 65.39767456054688 284.2097778320312 73.64241027832031 289.7798156738281 C 81.96490478515625 295.4024047851562 90.86163330078125 300.2314147949219 100.0853576660156 304.1327209472656 C 109.4785461425781 308.105712890625 119.3083648681641 311.1570434570312 129.3017272949219 313.2019958496094 C 139.5583648681641 315.3008117675781 150.1163635253906 316.364990234375 160.6824951171875 316.364990234375 C 171.2486267089844 316.364990234375 181.8066253662109 315.3008117675781 192.0632171630859 313.2019958496094 C 202.056640625 311.1570434570312 211.8864440917969 308.105712890625 221.2795867919922 304.1327209472656 C 230.5033569335938 300.2314147949219 239.4000396728516 295.4024047851562 247.7225341796875 289.7798156738281 C 255.9672698974609 284.2097778320312 263.720458984375 277.8128051757812 270.7666320800781 270.7666320800781 C 277.8128051757812 263.720458984375 284.2097778320312 255.9672698974609 289.7798156738281 247.7225341796875 C 295.4024047851562 239.4000396728516 300.2314147949219 230.5033569335938 304.1327209472656 221.2795867919922 C 308.105712890625 211.8864440917969 311.1570434570312 202.056640625 313.2019958496094 192.0632171630859 C 315.3008117675781 181.8066253662109 316.364990234375 171.2486267089844 316.364990234375 160.6824951171875 C 316.364990234375 150.1163635253906 315.3008117675781 139.5583648681641 313.2019958496094 129.3017272949219 C 311.1570434570312 119.3083648681641 308.105712890625 109.4785461425781 304.1327209472656 100.0853576660156 C 300.2314147949219 90.86163330078125 295.4024047851562 81.96490478515625 289.7798156738281 73.64241027832031 C 284.2097778320312 65.39767456054688 277.8128051757812 57.64453125 270.7666320800781 50.59835815429688 C 263.720458984375 43.5521240234375 255.9672698974609 37.15518188476562 247.7225341796875 31.58517456054688 C 239.4000396728516 25.96258544921875 230.5033569335938 21.133544921875 221.2795867919922 17.23220825195312 C 211.8864440917969 13.25927734375 202.056640625 10.20794677734375 192.0632171630859 8.162994384765625 C 181.8066253662109 6.064178466796875 171.2486267089844 5 160.6824951171875 5 M 160.6824951171875 0 C 249.4249572753906 0 321.364990234375 71.94000244140625 321.364990234375 160.6824951171875 C 321.364990234375 249.4249572753906 249.4249572753906 321.364990234375 160.6824951171875 321.364990234375 C 71.94000244140625 321.364990234375 0 249.4249572753906 0 160.6824951171875 C 0 71.94000244140625 71.94000244140625 0 160.6824951171875 0 Z" stroke="none" fill="#3895d9"/>
      </g>
    </g>
    <g id="package-cube-box-for-delivery_1_" data-name="package-cube-box-for-delivery (1)" transform="translate(632.08 279.323)">
      <path id="Path_20" data-name="Path 20" d="M1.09,65.312,1,27.836A2.566,2.566,0,0,1,4.576,25.47L38.692,40.054a2.566,2.566,0,0,1,1.558,2.354l.089,37.476a2.566,2.566,0,0,1-3.575,2.366L2.647,67.666A2.566,2.566,0,0,1,1.09,65.312ZM79.257,29.6,47.774,43.235l.082,34.682L79.339,64.282,79.257,29.6m1.274-4.521A2.569,2.569,0,0,1,83.1,27.642l.089,37.476a2.566,2.566,0,0,1-1.547,2.361L47.6,82.224a2.561,2.561,0,0,1-3.586-2.349L43.922,42.4a2.566,2.566,0,0,1,1.547-2.361L79.515,25.293a2.56,2.56,0,0,1,1.015-.214ZM41.847,3.97,9.188,18.552,41.915,32.979l18.1-8.083,14.554-6.5L41.847,3.97M41.837,0a2.567,2.567,0,0,1,1.041.218L78.773,16.041a2.566,2.566,0,0,1,.011,4.692L42.965,36.726a2.567,2.567,0,0,1-2.082,0l-4.916-2.167L4.989,20.908a2.566,2.566,0,0,1-.011-4.692L40.8.223A2.565,2.565,0,0,1,41.837,0Z" transform="translate(-1.001 0)" fill="#3895d9"/>
    </g>
    <text id="localhost_ネットワーク" data-name="localhost
ネットワーク" transform="translate(44 212)" fill="#969696" font-size="15" font-family="AcuminPro-Bold, Acumin Pro" font-weight="700"><tspan x="117.407" y="11">localhost</tspan><tspan font-size="30" font-family="PingFangSC-Semibold, PingFang SC" font-weight="600"><tspan x="59.5" y="53">ネットワーク</tspan></tspan></text>
    <text id="Docker_ネットワーク" data-name="Docker
ネットワーク" transform="translate(465.726 161.401)" fill="#3895d9" font-size="40" font-family="AcuminPro-Bold, Acumin Pro" font-weight="700"><tspan x="88.464" y="29">Docker</tspan><tspan font-size="30" font-family="PingFangSC-Semibold, PingFang SC" font-weight="600"><tspan x="65.484" y="88">ネットワーク</tspan></tspan></text>
    <g id="package-cube-box-for-delivery_1_2" data-name="package-cube-box-for-delivery (1)" transform="translate(525.273 279.323)">
      <path id="Path_20-2" data-name="Path 20" d="M1.09,65.312,1,27.836A2.566,2.566,0,0,1,4.576,25.47L38.692,40.054a2.566,2.566,0,0,1,1.558,2.354l.089,37.476a2.566,2.566,0,0,1-3.575,2.366L2.647,67.666A2.566,2.566,0,0,1,1.09,65.312ZM79.257,29.6,47.774,43.235l.082,34.682L79.339,64.282,79.257,29.6m1.274-4.521A2.569,2.569,0,0,1,83.1,27.642l.089,37.476a2.566,2.566,0,0,1-1.547,2.361L47.6,82.224a2.561,2.561,0,0,1-3.586-2.349L43.922,42.4a2.566,2.566,0,0,1,1.547-2.361L79.515,25.293a2.56,2.56,0,0,1,1.015-.214ZM41.847,3.97,9.188,18.552,41.915,32.979l18.1-8.083,14.554-6.5L41.847,3.97M41.837,0a2.567,2.567,0,0,1,1.041.218L78.773,16.041a2.566,2.566,0,0,1,.011,4.692L42.965,36.726a2.567,2.567,0,0,1-2.082,0L4.989,20.908a2.566,2.566,0,0,1-.011-4.692L40.8.223A2.565,2.565,0,0,1,41.837,0Z" transform="translate(-1.001 0)" fill="#3895d9"/>
    </g>
    <g id="Path_43" data-name="Path 43" transform="translate(32 111.635)" fill="none">
      <path d="M160.682,0A160.682,160.682,0,1,1,0,160.682,160.683,160.683,0,0,1,160.682,0Z" stroke="none"/>
      <path d="M 160.6824951171875 5 C 150.1163635253906 5 139.5583648681641 6.064178466796875 129.3017272949219 8.162994384765625 C 119.3083648681641 10.20794677734375 109.4785461425781 13.25927734375 100.0853576660156 17.23220825195312 C 90.86163330078125 21.133544921875 81.96490478515625 25.96258544921875 73.64241027832031 31.58517456054688 C 65.39767456054688 37.15518188476562 57.64453125 43.5521240234375 50.59835815429688 50.59835815429688 C 43.5521240234375 57.64453125 37.15518188476562 65.39767456054688 31.58517456054688 73.64241027832031 C 25.96258544921875 81.96490478515625 21.133544921875 90.86163330078125 17.23220825195312 100.0853576660156 C 13.25927734375 109.4785461425781 10.20794677734375 119.3083648681641 8.162994384765625 129.3017272949219 C 6.064178466796875 139.5583648681641 5 150.1163635253906 5 160.6824951171875 C 5 171.2486267089844 6.064178466796875 181.8066253662109 8.162994384765625 192.0632171630859 C 10.20794677734375 202.056640625 13.25927734375 211.8864440917969 17.23220825195312 221.2795867919922 C 21.133544921875 230.5033569335938 25.96258544921875 239.4000396728516 31.58517456054688 247.7225341796875 C 37.15518188476562 255.9672698974609 43.5521240234375 263.720458984375 50.59835815429688 270.7666320800781 C 57.64453125 277.8128051757812 65.39767456054688 284.2097778320312 73.64241027832031 289.7798156738281 C 81.96490478515625 295.4024047851562 90.86163330078125 300.2314147949219 100.0853576660156 304.1327209472656 C 109.4785461425781 308.105712890625 119.3083648681641 311.1570434570312 129.3017272949219 313.2019958496094 C 139.5583648681641 315.3008117675781 150.1163635253906 316.364990234375 160.6824951171875 316.364990234375 C 171.2486267089844 316.364990234375 181.8066253662109 315.3008117675781 192.0632171630859 313.2019958496094 C 202.056640625 311.1570434570312 211.8864440917969 308.105712890625 221.2795867919922 304.1327209472656 C 230.5033569335938 300.2314147949219 239.4000396728516 295.4024047851562 247.7225341796875 289.7798156738281 C 255.9672698974609 284.2097778320312 263.720458984375 277.8128051757812 270.7666320800781 270.7666320800781 C 277.8128051757812 263.720458984375 284.2097778320312 255.9672698974609 289.7798156738281 247.7225341796875 C 295.4024047851562 239.4000396728516 300.2314147949219 230.5033569335938 304.1327209472656 221.2795867919922 C 308.105712890625 211.8864440917969 311.1570434570312 202.056640625 313.2019958496094 192.0632171630859 C 315.3008117675781 181.8066253662109 316.364990234375 171.2486267089844 316.364990234375 160.6824951171875 C 316.364990234375 150.1163635253906 315.3008117675781 139.5583648681641 313.2019958496094 129.3017272949219 C 311.1570434570312 119.3083648681641 308.105712890625 109.4785461425781 304.1327209472656 100.0853576660156 C 300.2314147949219 90.86163330078125 295.4024047851562 81.96490478515625 289.7798156738281 73.64241027832031 C 284.2097778320312 65.39767456054688 277.8128051757812 57.64453125 270.7666320800781 50.59835815429688 C 263.720458984375 43.5521240234375 255.9672698974609 37.15518188476562 247.7225341796875 31.58517456054688 C 239.4000396728516 25.96258544921875 230.5033569335938 21.133544921875 221.2795867919922 17.23220825195312 C 211.8864440917969 13.25927734375 202.056640625 10.20794677734375 192.0632171630859 8.162994384765625 C 181.8066253662109 6.064178466796875 171.2486267089844 5 160.6824951171875 5 M 160.6824951171875 0 C 249.4249572753906 0 321.364990234375 71.94000244140625 321.364990234375 160.6824951171875 C 321.364990234375 249.4249572753906 249.4249572753906 321.364990234375 160.6824951171875 321.364990234375 C 71.94000244140625 321.364990234375 0 249.4249572753906 0 160.6824951171875 C 0 71.94000244140625 71.94000244140625 0 160.6824951171875 0 Z" stroke="none" fill="#969696"/>
    </g>
    <text id="_3000" data-name="3000" transform="translate(545.5 369)" fill="#eb21f4" font-size="30" font-family="AcuminPro-Bold, Acumin Pro" font-weight="700"><tspan x="-35.28" y="0">3000</tspan></text>
    <text id="_3000-2" data-name="3000" transform="translate(318.5 369)" fill="#eb21f4" font-size="30" font-family="AcuminPro-Bold, Acumin Pro" font-weight="700"><tspan x="-35.28" y="0">3000</tspan></text>
    <text id="_publish_3000:3000" data-name="—publish=3000:3000" transform="translate(395.5 83)" fill="#eb21f4" font-size="50" font-family="AcuminPro-Bold, Acumin Pro" font-weight="700"><tspan x="-250.275" y="0">—publish=3000:3000</tspan></text>
    <text id="ホストマシン" transform="translate(43 161)" fill="#969696" font-size="30" font-family="PingFangSC-Semibold, PingFang SC" font-weight="600"><tspan x="59.5" y="32">ホストマシン</tspan></text>
    <g id="Ellipse_24" data-name="Ellipse 24" transform="translate(332 328)" fill="#eb21f4" stroke="#707070" stroke-width="1">
      <circle cx="9" cy="9" r="9" stroke="none"/>
      <circle cx="9" cy="9" r="8.5" fill="none"/>
    </g>
    <g id="Ellipse_25" data-name="Ellipse 25" transform="translate(537 328)" fill="#eb21f4" stroke="#707070" stroke-width="1">
      <circle cx="9" cy="9" r="9" stroke="none"/>
      <circle cx="9" cy="9" r="8.5" fill="none"/>
    </g>
    <line id="Line_11" data-name="Line 11" y1="1" x2="204" transform="translate(341.5 336.5)" fill="none" stroke="#bebebe" stroke-width="5"/>
    <text id="ポートとポートを接続" transform="translate(434 405)" fill="#eb21f4" font-size="30" font-family="PingFangSC-Semibold, PingFang SC" font-weight="600"><tspan x="-150" y="0">ポートとポートを接続</tspan></text>
  </g>
</svg>
