<svg xmlns="http://www.w3.org/2000/svg" xmlns:xlink="http://www.w3.org/1999/xlink" width="810" height="500" viewBox="0 0 810 500">
  <defs>
    <clipPath id="clip-path">
      <rect width="810" height="500" fill="none"/>
    </clipPath>
    <filter id="Path_44" x="404.5" y="92.135" width="385.08" height="385.08" filterUnits="userSpaceOnUse">
      <feOffset dx="1" dy="1" input="SourceAlpha"/>
      <feGaussianBlur stdDeviation="0.5" result="blur"/>
      <feFlood flood-color="#3895d9"/>
      <feComposite operator="in" in2="blur"/>
      <feComposite in="SourceGraphic"/>
    </filter>
  </defs>
  <g id="Component_12_1" data-name="Component 12 – 1" clip-path="url(#clip-path)">
    <g id="Rectangle_63" data-name="Rectangle 63" fill="#fff" stroke="#969696" stroke-width="3">
      <rect width="810" height="500" rx="36" stroke="none"/>
      <rect x="1.5" y="1.5" width="807" height="497" rx="34.5" fill="none"/>
    </g>
    <g transform="matrix(1, 0, 0, 1, 0, 0)" filter="url(#Path_44)">
      <g id="Path_44-2" data-name="Path 44" transform="translate(405 92.64)" fill="none">
        <path d="M191.04,0C296.548,0,382.08,85.531,382.08,191.04S296.548,382.08,191.04,382.08,0,296.548,0,191.04,85.531,0,191.04,0Z" stroke="none"/>
        <path d="M 191.0399169921875 4.999969482421875 C 178.4140777587891 4.999969482421875 165.7976531982422 6.27166748046875 153.5410766601562 8.779693603515625 C 141.5985412597656 11.2235107421875 129.8515472412109 14.86996459960938 118.6263427734375 19.61785888671875 C 107.603759765625 24.280029296875 96.97213745117188 30.05072021484375 87.02670288085938 36.76971435546875 C 77.17449951171875 43.42575073242188 67.90975952148438 51.06985473632812 59.48980712890625 59.48980712890625 C 51.06985473632812 67.90975952148438 43.42575073242188 77.17449951171875 36.76971435546875 87.02670288085938 C 30.05072021484375 96.97213745117188 24.280029296875 107.603759765625 19.61785888671875 118.6263427734375 C 14.86996459960938 129.8515472412109 11.2235107421875 141.5985412597656 8.779693603515625 153.5410766601562 C 6.27166748046875 165.7976531982422 4.999969482421875 178.4140777587891 4.999969482421875 191.0399169921875 C 4.999969482421875 203.6657562255859 6.27166748046875 216.2821807861328 8.779693603515625 228.5387573242188 C 11.2235107421875 240.4812316894531 14.86996459960938 252.2282867431641 19.61785888671875 263.4534912109375 C 24.280029296875 274.47607421875 30.05072021484375 285.1076965332031 36.76971435546875 295.0531311035156 C 43.42575073242188 304.9053344726562 51.06985473632812 314.1700744628906 59.48980712890625 322.5899658203125 C 67.90975952148438 331.0099182128906 77.17449951171875 338.6540832519531 87.02670288085938 345.31005859375 C 96.97213745117188 352.0290832519531 107.603759765625 357.7997436523438 118.6263427734375 362.4619140625 C 129.8515472412109 367.2098083496094 141.5985412597656 370.8562927246094 153.5410766601562 373.3000793457031 C 165.7976531982422 375.8081359863281 178.4140777587891 377.0798034667969 191.0399169921875 377.0798034667969 C 203.6657562255859 377.0798034667969 216.2821807861328 375.8081359863281 228.5387573242188 373.3000793457031 C 240.4812316894531 370.8562927246094 252.2282867431641 367.2098083496094 263.4534912109375 362.4619140625 C 274.47607421875 357.7997436523438 285.1076965332031 352.0290832519531 295.0531311035156 345.31005859375 C 304.9053344726562 338.6540832519531 314.1700744628906 331.0099182128906 322.5899658203125 322.5899658203125 C 331.0099182128906 314.1700744628906 338.6540832519531 304.9053344726562 345.31005859375 295.0531311035156 C 352.0290832519531 285.1076965332031 357.7997436523438 274.47607421875 362.4619140625 263.4534912109375 C 367.2098083496094 252.2282867431641 370.8562927246094 240.4812316894531 373.3000793457031 228.5387573242188 C 375.8081359863281 216.2821807861328 377.0798034667969 203.6657562255859 377.0798034667969 191.0399169921875 C 377.0798034667969 178.4140777587891 375.8081359863281 165.7976531982422 373.3000793457031 153.5410766601562 C 370.8562927246094 141.5985412597656 367.2098083496094 129.8515472412109 362.4619140625 118.6263427734375 C 357.7997436523438 107.603759765625 352.0290832519531 96.97213745117188 345.31005859375 87.02670288085938 C 338.6540832519531 77.17449951171875 331.0099182128906 67.90975952148438 322.5899658203125 59.48980712890625 C 314.1700744628906 51.06985473632812 304.9053344726562 43.42575073242188 295.0531311035156 36.76971435546875 C 285.1076965332031 30.05072021484375 274.47607421875 24.280029296875 263.4534912109375 19.61785888671875 C 252.2282867431641 14.86996459960938 240.4812316894531 11.2235107421875 228.5387573242188 8.779693603515625 C 216.2821807861328 6.27166748046875 203.6657562255859 4.999969482421875 191.0399169921875 4.999969482421875 M 191.0399169921875 -3.0517578125e-05 C 296.54833984375 -3.0517578125e-05 382.0798034667969 85.531494140625 382.0798034667969 191.0399169921875 C 382.0798034667969 296.54833984375 296.54833984375 382.0798034667969 191.0399169921875 382.0798034667969 C 85.531494140625 382.0798034667969 -3.0517578125e-05 296.54833984375 -3.0517578125e-05 191.0399169921875 C -3.0517578125e-05 85.531494140625 85.531494140625 -3.0517578125e-05 191.0399169921875 -3.0517578125e-05 Z" stroke="none" fill="#3895d9"/>
      </g>
    </g>
    <g id="package-cube-box-for-delivery_1_" data-name="package-cube-box-for-delivery (1)" transform="translate(609.401 308.138)">
      <path id="Path_20" data-name="Path 20" d="M1.106,77.651,1,33.095a3.051,3.051,0,0,1,4.251-2.813L45.813,47.621a3.051,3.051,0,0,1,1.852,2.8l.105,44.556a3.051,3.051,0,0,1-4.251,2.813L2.958,80.45A3.051,3.051,0,0,1,1.106,77.651ZM94.041,35.192,56.61,51.4l.1,41.235L94.139,76.427l-.1-41.235m1.515-5.375a3.054,3.054,0,0,1,3.057,3.047l.105,44.556a3.051,3.051,0,0,1-1.839,2.807L56.4,97.758a3.045,3.045,0,0,1-4.264-2.792l-.105-44.556A3.051,3.051,0,0,1,53.87,47.6L94.349,30.071a3.043,3.043,0,0,1,1.207-.255ZM49.563,4.72,10.735,22.057,49.645,39.21,71.169,29.6l17.3-7.726L49.563,4.72M49.552,0A3.052,3.052,0,0,1,50.79.259L93.466,19.072a3.051,3.051,0,0,1,.013,5.578L50.893,43.665a3.051,3.051,0,0,1-2.475.006l-5.844-2.576L5.742,24.858a3.051,3.051,0,0,1-.013-5.578L48.315.265A3.05,3.05,0,0,1,49.552,0Z" transform="translate(-1.001 0)" fill="#3895d9"/>
    </g>
    <text id="Docker_Network" data-name="Docker
Network" transform="translate(411.619 167.937)" fill="#3895d9" font-size="20" font-family="AcuminPro-Bold, Acumin Pro" font-weight="700"><tspan x="151.349" y="15">Docker</tspan><tspan x="145.009" y="43">Network</tspan></text>
    <g id="package-cube-box-for-delivery_1_2" data-name="package-cube-box-for-delivery (1)" transform="translate(482.416 308.138)">
      <path id="Path_20-2" data-name="Path 20" d="M1.106,77.651,1,33.095a3.051,3.051,0,0,1,4.251-2.813L45.813,47.621a3.051,3.051,0,0,1,1.852,2.8l.105,44.556a3.051,3.051,0,0,1-4.251,2.813L2.958,80.45A3.051,3.051,0,0,1,1.106,77.651ZM94.041,35.192,56.61,51.4l.1,41.235L94.139,76.427l-.1-41.235m1.515-5.375a3.054,3.054,0,0,1,3.057,3.047l.105,44.556a3.051,3.051,0,0,1-1.839,2.807L56.4,97.758a3.045,3.045,0,0,1-4.264-2.792l-.105-44.556A3.051,3.051,0,0,1,53.87,47.6L94.349,30.071a3.043,3.043,0,0,1,1.207-.255ZM49.563,4.72,10.735,22.057,49.645,39.21,71.169,29.6l17.3-7.726L49.563,4.72M49.552,0A3.052,3.052,0,0,1,50.79.259L93.466,19.072a3.051,3.051,0,0,1,.013,5.578L50.893,43.665a3.051,3.051,0,0,1-2.475.006L5.742,24.858a3.051,3.051,0,0,1-.013-5.578L48.315.265A3.05,3.05,0,0,1,49.552,0Z" transform="translate(-1.001 0)" fill="#3895d9"/>
    </g>
    <text id="_3000" data-name="3000" transform="translate(650.813 420.112)" fill="#eb21f4" font-size="35" font-family="AcuminPro-Bold, Acumin Pro" font-weight="700"><tspan x="-41.16" y="0">3000</tspan></text>
    <text id="_3000-2" data-name="3000" transform="translate(507.129 420.112)" fill="#eb21f4" font-size="35" font-family="AcuminPro-Bold, Acumin Pro" font-weight="700"><tspan x="-41.16" y="0">3000</tspan></text>
    <g id="Ellipse_26" data-name="Ellipse 26" transform="translate(618.818 366.011)" fill="#eb21f4" stroke="#707070" stroke-width="1">
      <circle cx="10.7" cy="10.7" r="10.7" stroke="none"/>
      <circle cx="10.7" cy="10.7" r="10.2" fill="none"/>
    </g>
    <g id="Ellipse_27" data-name="Ellipse 27" transform="translate(496.359 366.011)" fill="#eb21f4" stroke="#707070" stroke-width="1">
      <circle cx="10.7" cy="10.7" r="10.7" stroke="none"/>
      <circle cx="10.7" cy="10.7" r="10.2" fill="none"/>
    </g>
    <text id="container01" transform="translate(530.478 293.937)" fill="#3895d9" font-size="20" font-family="AcuminPro-Bold, Acumin Pro" font-weight="700"><tspan x="-54.38" y="0">container01</tspan></text>
    <text id="container02" transform="translate(657.478 292.937)" fill="#3895d9" font-size="20" font-family="AcuminPro-Bold, Acumin Pro" font-weight="700"><tspan x="-55.89" y="0">container02</tspan></text>
    <g id="Path_45" data-name="Path 45" transform="translate(21 97.635)" fill="none">
      <path d="M187.223,0c103.4,0,187.223,85.531,187.223,191.04S290.623,382.08,187.223,382.08,0,296.548,0,191.04,83.822,0,187.223,0Z" stroke="none"/>
      <path d="M 187.22265625 5 C 174.8625030517578 5 162.5115051269531 6.270294189453125 150.5127105712891 8.775665283203125 C 138.8204498291016 11.217041015625 127.3191833496094 14.86007690429688 116.3284606933594 19.60357666015625 C 105.5343933105469 24.26214599609375 95.12265014648438 30.02877807617188 85.38253784179688 36.74325561523438 C 75.73171997070312 43.39614868164062 66.65591430664062 51.03713989257812 58.40728759765625 59.4539794921875 C 50.15692138671875 67.87255859375 42.66635131835938 77.1363525390625 36.14370727539062 86.98797607421875 C 29.55813598632812 96.93466186523438 23.90176391601562 107.5682067871094 19.33175659179688 118.5932006835938 C 14.67706298828125 129.822509765625 11.10208129882812 141.5742492675781 8.706085205078125 153.5218811035156 C 6.246856689453125 165.7846221923828 4.999969482421875 178.4075164794922 4.999969482421875 191.0399322509766 C 4.999969482421875 203.6723480224609 6.246856689453125 216.2952423095703 8.706085205078125 228.5579833984375 C 11.10208129882812 240.505615234375 14.67706298828125 252.2572937011719 19.33175659179688 263.4866638183594 C 23.90176391601562 274.5116271972656 29.55813598632812 285.1451416015625 36.14370727539062 295.0918884277344 C 42.66635131835938 304.9435119628906 50.15692138671875 314.2073059082031 58.40728759765625 322.6258850097656 C 66.65591430664062 331.042724609375 75.73171997070312 338.6837158203125 85.38253784179688 345.3366088867188 C 95.12265014648438 352.0510864257812 105.5343933105469 357.8177185058594 116.3284606933594 362.4762878417969 C 127.3191833496094 367.2197875976562 138.8204498291016 370.8628234863281 150.5127105712891 373.30419921875 C 162.5115051269531 375.8095703125 174.8625030517578 377.0798950195312 187.22265625 377.0798950195312 C 199.582763671875 377.0798950195312 211.9337615966797 375.8095703125 223.9325561523438 373.30419921875 C 235.6248626708984 370.8628234863281 247.1261291503906 367.2197875976562 258.1168823242188 362.4762878417969 C 268.9108581542969 357.8177185058594 279.3226013183594 352.0510864257812 289.062744140625 345.3366088867188 C 298.7135620117188 338.6837158203125 307.7893371582031 331.042724609375 316.0380249023438 322.6258850097656 C 324.2883911132812 314.2073059082031 331.7789306640625 304.9435119628906 338.3015441894531 295.0918884277344 C 344.8871459960938 285.1451416015625 350.5434875488281 274.5116271972656 355.1134948730469 263.4866638183594 C 359.7681884765625 252.2572937011719 363.3432312011719 240.505615234375 365.7391967773438 228.5579833984375 C 368.1983947753906 216.2952423095703 369.4452819824219 203.6723480224609 369.4452819824219 191.0399322509766 C 369.4452819824219 178.4075164794922 368.1983947753906 165.7846221923828 365.7391967773438 153.5218811035156 C 363.3432312011719 141.5742492675781 359.7681884765625 129.822509765625 355.1134948730469 118.5932006835938 C 350.5434875488281 107.5682067871094 344.8871459960938 96.93466186523438 338.3015441894531 86.98797607421875 C 331.7789306640625 77.1363525390625 324.2883911132812 67.87255859375 316.0380249023438 59.4539794921875 C 307.7893371582031 51.03713989257812 298.7135620117188 43.39614868164062 289.062744140625 36.74325561523438 C 279.3226013183594 30.02877807617188 268.9109191894531 24.26214599609375 258.1168823242188 19.60357666015625 C 247.1261291503906 14.86007690429688 235.6248626708984 11.217041015625 223.9325561523438 8.775665283203125 C 211.9337615966797 6.270294189453125 199.582763671875 5 187.22265625 5 M 187.22265625 0 C 290.622802734375 0 374.4452819824219 85.53152465820312 374.4452819824219 191.0399322509766 C 374.4452819824219 296.5483093261719 290.622802734375 382.0798645019531 187.22265625 382.0798645019531 C 83.82244873046875 382.0798645019531 -3.0517578125e-05 296.5483093261719 -3.0517578125e-05 191.0399322509766 C -3.0517578125e-05 85.53152465820312 83.82244873046875 0 187.22265625 0 Z" stroke="none" fill="#969696"/>
    </g>
    <text id="Host_Network" data-name="Host
Network" transform="translate(81 185)" fill="#969696" font-size="30" font-family="AcuminPro-Bold, Acumin Pro" font-weight="700"><tspan x="94.21" y="22">Host</tspan><tspan x="67.225" y="64">Network</tspan></text>
    <text id="ホストとコンテナを接続" transform="translate(410 76)" fill="#eb21f4" font-size="50" font-family="PingFangSC-Semibold, PingFang SC" font-weight="600"><tspan x="-275" y="0">ホストとコンテナを接続</tspan></text>
    <text id="_3100" data-name="3100" transform="translate(219.129 420.112)" fill="#eb21f4" font-size="35" font-family="AcuminPro-Bold, Acumin Pro" font-weight="700"><tspan x="-37.432" y="0">3100</tspan></text>
    <g id="Ellipse_28" data-name="Ellipse 28" transform="translate(208.359 366.011)" fill="#eb21f4" stroke="#707070" stroke-width="1">
      <circle cx="10.7" cy="10.7" r="10.7" stroke="none"/>
      <circle cx="10.7" cy="10.7" r="10.2" fill="none"/>
    </g>
    <line id="Line_12" data-name="Line 12" x2="288" transform="translate(219.5 376.5)" fill="none" stroke="#969696" stroke-width="5"/>
  </g>
</svg>
