<svg xmlns="http://www.w3.org/2000/svg" xmlns:xlink="http://www.w3.org/1999/xlink" width="810" height="500" viewBox="0 0 810 500">
  <defs>
    <clipPath id="clip-path">
      <rect width="810" height="500" fill="none"/>
    </clipPath>
    <filter id="Path_49" x="359.245" y="34.668" width="431.75" height="431.75" filterUnits="userSpaceOnUse">
      <feOffset dx="1" dy="1" input="SourceAlpha"/>
      <feGaussianBlur stdDeviation="0.5" result="blur"/>
      <feFlood flood-color="#3895d9"/>
      <feComposite operator="in" in2="blur"/>
      <feComposite in="SourceGraphic"/>
    </filter>
  </defs>
  <g id="Component_14_1" data-name="Component 14 – 1" clip-path="url(#clip-path)">
    <g id="Rectangle_62" data-name="Rectangle 62" fill="#fff" stroke="#969696" stroke-width="3">
      <rect width="810" height="500" rx="36" stroke="none"/>
      <rect x="1.5" y="1.5" width="807" height="497" rx="34.5" fill="none"/>
    </g>
    <g transform="matrix(1, 0, 0, 1, 0, 0)" filter="url(#Path_49)">
      <g id="Path_49-2" data-name="Path 49" transform="translate(359.74 35.17)" fill="none">
        <path d="M214.375,0C332.771,0,428.75,95.979,428.75,214.375S332.771,428.75,214.375,428.75,0,332.771,0,214.375,95.979,0,214.375,0Z" stroke="none"/>
        <path d="M 214.375 5 C 200.1658782958984 5 185.9672393798828 6.431182861328125 172.17333984375 9.253814697265625 C 158.7325744628906 12.00424194335938 145.5118103027344 16.10818481445312 132.8783569335938 21.45166015625 C 120.4730529785156 26.69863891601562 108.5078125 33.1932373046875 97.31494140625 40.7550048828125 C 86.22705078125 48.24575805664062 75.8004150390625 56.8486328125 66.32452392578125 66.32452392578125 C 56.8486328125 75.8004150390625 48.24575805664062 86.22705078125 40.7550048828125 97.31494140625 C 33.1932373046875 108.5078125 26.69863891601562 120.4730529785156 21.45166015625 132.8783569335938 C 16.10818481445312 145.5118103027344 12.00424194335938 158.7325744628906 9.253814697265625 172.17333984375 C 6.431182861328125 185.9672393798828 5 200.1658782958984 5 214.375 C 5 228.5841217041016 6.431182861328125 242.7827606201172 9.253814697265625 256.57666015625 C 12.00424194335938 270.0173950195312 16.10818481445312 283.2381591796875 21.45166015625 295.8716430664062 C 26.69863891601562 308.2769470214844 33.1932373046875 320.2421875 40.7550048828125 331.43505859375 C 48.24575805664062 342.52294921875 56.8486328125 352.9495849609375 66.32452392578125 362.4254760742188 C 75.8004150390625 371.9013671875 86.22705078125 380.5042419433594 97.31494140625 387.9949951171875 C 108.5078125 395.5567626953125 120.4730529785156 402.0513610839844 132.8783569335938 407.29833984375 C 145.5118103027344 412.6418151855469 158.7325744628906 416.7457580566406 172.17333984375 419.4961853027344 C 185.9672393798828 422.3188171386719 200.1658782958984 423.75 214.375 423.75 C 228.5841217041016 423.75 242.7827606201172 422.3188171386719 256.57666015625 419.4961853027344 C 270.0173950195312 416.7457580566406 283.2381591796875 412.6418151855469 295.8716430664062 407.29833984375 C 308.2769470214844 402.0513610839844 320.2421875 395.5567626953125 331.43505859375 387.9949951171875 C 342.52294921875 380.5042419433594 352.9495849609375 371.9013671875 362.4254760742188 362.4254760742188 C 371.9013671875 352.9495849609375 380.5042419433594 342.52294921875 387.9949951171875 331.43505859375 C 395.5567626953125 320.2421875 402.0513610839844 308.2769470214844 407.29833984375 295.8716430664062 C 412.6418151855469 283.2381591796875 416.7457580566406 270.0173950195312 419.4961853027344 256.57666015625 C 422.3188171386719 242.7827606201172 423.75 228.5841217041016 423.75 214.375 C 423.75 200.1658782958984 422.3188171386719 185.9672393798828 419.4961853027344 172.17333984375 C 416.7457580566406 158.7325744628906 412.6418151855469 145.5118103027344 407.29833984375 132.8783569335938 C 402.0513610839844 120.4730529785156 395.5567626953125 108.5078125 387.9949951171875 97.31494140625 C 380.5042419433594 86.22705078125 371.9013671875 75.8004150390625 362.4254760742188 66.32452392578125 C 352.9495849609375 56.8486328125 342.52294921875 48.24575805664062 331.43505859375 40.7550048828125 C 320.2421875 33.1932373046875 308.2769470214844 26.69863891601562 295.8716430664062 21.45166015625 C 283.2381591796875 16.10818481445312 270.0173950195312 12.00424194335938 256.57666015625 9.253814697265625 C 242.7827606201172 6.431182861328125 228.5841217041016 5 214.375 5 M 214.375 0 C 332.7710571289062 0 428.75 95.97894287109375 428.75 214.375 C 428.75 332.7710571289062 332.7710571289062 428.75 214.375 428.75 C 95.97894287109375 428.75 0 332.7710571289062 0 214.375 C 0 95.97894287109375 95.97894287109375 0 214.375 0 Z" stroke="none" fill="#3895d9"/>
      </g>
    </g>
    <g id="package-cube-box-for-delivery_1_" data-name="package-cube-box-for-delivery (1)" transform="translate(607.019 230)">
      <path id="Path_20" data-name="Path 20" d="M1.094,68.275,1,29.1a2.683,2.683,0,0,1,3.737-2.473L40.4,41.872a2.683,2.683,0,0,1,1.628,2.46l.093,39.176a2.683,2.683,0,0,1-3.737,2.473L2.722,70.736A2.682,2.682,0,0,1,1.094,68.275ZM82.807,30.943,49.9,45.2l.086,36.256L82.893,67.2l-.086-36.256m1.332-4.726A2.686,2.686,0,0,1,86.827,28.9l.093,39.176A2.683,2.683,0,0,1,85.3,70.54L49.711,85.955A2.677,2.677,0,0,1,45.962,83.5L45.87,44.323a2.682,2.682,0,0,1,1.617-2.468L83.078,26.441a2.676,2.676,0,0,1,1.061-.224ZM43.7,4.15,9.56,19.394,43.772,34.475,62.7,26.025l15.215-6.793L43.7,4.15M43.69,0a2.683,2.683,0,0,1,1.088.228L82.3,16.769a2.683,2.683,0,0,1,.012,4.9L44.869,38.393a2.683,2.683,0,0,1-2.176.005l-5.139-2.265L5.17,21.856a2.683,2.683,0,0,1-.012-4.9L42.6.233A2.682,2.682,0,0,1,43.69,0Z" transform="translate(-1.001 0)" fill="#3895d9"/>
    </g>
    <g id="package-cube-box-for-delivery_1_2" data-name="package-cube-box-for-delivery (1)" transform="translate(464.1 230)">
      <path id="Path_20-2" data-name="Path 20" d="M1.094,68.275,1,29.1a2.683,2.683,0,0,1,3.737-2.473L40.4,41.872a2.683,2.683,0,0,1,1.628,2.46l.093,39.176a2.683,2.683,0,0,1-3.737,2.473L2.722,70.736A2.682,2.682,0,0,1,1.094,68.275ZM82.807,30.943,49.9,45.2l.086,36.256L82.893,67.2l-.086-36.256m1.332-4.726A2.686,2.686,0,0,1,86.827,28.9l.093,39.176A2.683,2.683,0,0,1,85.3,70.54L49.711,85.955A2.677,2.677,0,0,1,45.962,83.5L45.87,44.323a2.682,2.682,0,0,1,1.617-2.468L83.078,26.441a2.676,2.676,0,0,1,1.061-.224ZM43.7,4.15,9.56,19.394,43.772,34.475,62.7,26.025l15.215-6.793L43.7,4.15M43.69,0a2.683,2.683,0,0,1,1.088.228L82.3,16.769a2.683,2.683,0,0,1,.012,4.9L44.869,38.393a2.683,2.683,0,0,1-2.176.005L5.17,21.856a2.683,2.683,0,0,1-.012-4.9L42.6.233A2.682,2.682,0,0,1,43.69,0Z" transform="translate(-1.001 0)" fill="#3895d9"/>
    </g>
    <text id="_03" data-name="03" transform="translate(505.241 221.472)" fill="#3895d9" font-size="32" font-family="AcuminPro-Bold, Acumin Pro" font-weight="700"><tspan x="-18.496" y="0">03</tspan></text>
    <text id="_04" data-name="04" transform="translate(648.406 220.7)" fill="#3895d9" font-size="31" font-family="AcuminPro-Bold, Acumin Pro" font-weight="700"><tspan x="-18.212" y="0">04</tspan></text>
    <text id="net01" transform="translate(573.317 119.674)" fill="#3895d9" font-size="32" font-family="AcuminPro-Bold, Acumin Pro" font-weight="700"><tspan x="-40.144" y="0">net01</tspan></text>
    <text id="_3000" data-name="3000" transform="translate(463.264 325.058)" fill="#eb21f4" font-size="23" font-family="AcuminPro-Bold, Acumin Pro" font-weight="700"><tspan x="-27.048" y="0">3000</tspan></text>
    <text id="_3000-2" data-name="3000" transform="translate(667.315 333.285)" fill="#eb21f4" font-size="23" font-family="AcuminPro-Bold, Acumin Pro" font-weight="700"><tspan x="-27.048" y="0">3000</tspan></text>
    <g id="Ellipse_33" data-name="Ellipse 33" transform="translate(471.644 281.728)" fill="#eb21f4" stroke="#eb21f4" stroke-width="1">
      <circle cx="9.873" cy="9.873" r="9.873" stroke="none"/>
      <circle cx="9.873" cy="9.873" r="9.373" fill="none"/>
    </g>
    <g id="Ellipse_34" data-name="Ellipse 34" transform="translate(614.809 281.728)" fill="#eb21f4" stroke="#eb21f4" stroke-width="1">
      <circle cx="9.873" cy="9.873" r="9.873" stroke="none"/>
      <circle cx="9.873" cy="9.873" r="9.373" fill="none"/>
    </g>
    <g id="package-cube-box-for-delivery_1_3" data-name="package-cube-box-for-delivery (1)" transform="translate(187.497 229.362)">
      <path id="Path_20-3" data-name="Path 20" d="M1.087,63.571,1,27.094a2.5,2.5,0,0,1,3.48-2.3l33.207,14.2A2.5,2.5,0,0,1,39.2,41.277l.086,36.477a2.5,2.5,0,0,1-3.48,2.3L2.6,65.862A2.5,2.5,0,0,1,1.087,63.571Zm76.083-34.76L46.527,42.082l.08,33.758L77.251,62.569l-.08-33.758m1.24-4.4a2.5,2.5,0,0,1,2.5,2.495L81,63.382a2.5,2.5,0,0,1-1.505,2.3L46.355,80.032a2.493,2.493,0,0,1-3.491-2.286l-.086-36.477a2.5,2.5,0,0,1,1.505-2.3L77.423,24.619a2.491,2.491,0,0,1,.988-.209ZM40.758,3.864,8.97,18.057,40.825,32.1l17.621-7.868,14.166-6.325L40.758,3.864M40.749,0a2.5,2.5,0,0,1,1.013.212L76.7,15.614a2.5,2.5,0,0,1,.011,4.567L41.846,35.747a2.5,2.5,0,0,1-2.026,0l-4.785-2.109L4.883,20.35a2.5,2.5,0,0,1-.011-4.567L39.736.217A2.5,2.5,0,0,1,40.749,0Z" transform="translate(-1.001 0)" fill="#3895d9"/>
    </g>
    <g id="package-cube-box-for-delivery_1_4" data-name="package-cube-box-for-delivery (1)" transform="translate(54.425 229.362)">
      <path id="Path_20-4" data-name="Path 20" d="M1.087,63.571,1,27.094a2.5,2.5,0,0,1,3.48-2.3l33.207,14.2A2.5,2.5,0,0,1,39.2,41.277l.086,36.477a2.5,2.5,0,0,1-3.48,2.3L2.6,65.862A2.5,2.5,0,0,1,1.087,63.571Zm76.083-34.76L46.527,42.082l.08,33.758L77.251,62.569l-.08-33.758m1.24-4.4a2.5,2.5,0,0,1,2.5,2.495L81,63.382a2.5,2.5,0,0,1-1.505,2.3L46.355,80.032a2.493,2.493,0,0,1-3.491-2.286l-.086-36.477a2.5,2.5,0,0,1,1.505-2.3L77.423,24.619a2.491,2.491,0,0,1,.988-.209ZM40.758,3.864,8.97,18.057,40.825,32.1l17.621-7.868,14.166-6.325L40.758,3.864M40.749,0a2.5,2.5,0,0,1,1.013.212L76.7,15.614a2.5,2.5,0,0,1,.011,4.567L41.846,35.747a2.5,2.5,0,0,1-2.026,0L4.883,20.35a2.5,2.5,0,0,1-.011-4.567L39.736.217A2.5,2.5,0,0,1,40.749,0Z" transform="translate(-1.001 0)" fill="#3895d9"/>
    </g>
    <text id="_01" data-name="01" transform="translate(93.036 219.939)" fill="#3895d9" font-size="29" font-family="AcuminPro-Bold, Acumin Pro" font-weight="700"><tspan x="-14.471" y="0">01</tspan></text>
    <text id="_02" data-name="02" transform="translate(226.804 219.939)" fill="#3895d9" font-size="28" font-family="AcuminPro-Bold, Acumin Pro" font-weight="700"><tspan x="-16.086" y="0">02</tspan></text>
    <path id="Path_52" data-name="Path 52" d="M102.723,0" transform="translate(115.776 284.073)" fill="none" stroke="#969696" stroke-width="5"/>
    <path id="Path_51" data-name="Path 51" d="M-638.522,3720.5" transform="translate(850.858 -3437.96)" fill="none" stroke="#707070" stroke-width="1"/>
    <text id="_3000-3" data-name="3000" transform="translate(51.975 313.628)" fill="#eb21f4" font-size="21" font-family="AcuminPro-Bold, Acumin Pro" font-weight="700"><tspan x="-24.696" y="0">3000</tspan></text>
    <text id="_3000-4" data-name="3000" transform="translate(243.499 321.289)" fill="#eb21f4" font-size="21" font-family="AcuminPro-Bold, Acumin Pro" font-weight="700"><tspan x="-24.696" y="0">3000</tspan></text>
    <g id="Ellipse_35" data-name="Ellipse 35" transform="translate(67.578 275.646)" fill="#eb21f4" stroke="#eb21f4" stroke-width="1">
      <circle cx="9.193" cy="9.193" r="9.193" stroke="none"/>
      <circle cx="9.193" cy="9.193" r="8.693" fill="none"/>
    </g>
    <g id="Ellipse_36" data-name="Ellipse 36" transform="translate(208.54 275.646)" fill="#eb21f4" stroke="#eb21f4" stroke-width="1">
      <circle cx="9.193" cy="9.193" r="9.193" stroke="none"/>
      <circle cx="9.193" cy="9.193" r="8.693" fill="none"/>
    </g>
  </g>
</svg>
