<svg xmlns="http://www.w3.org/2000/svg" xmlns:xlink="http://www.w3.org/1999/xlink" width="810" height="500" viewBox="0 0 810 500">
  <defs>
    <clipPath id="clip-path">
      <rect width="810" height="500" fill="none"/>
    </clipPath>
    <filter id="Path_38" x="460.5" y="105.135" width="324.365" height="324.365" filterUnits="userSpaceOnUse">
      <feOffset dx="1" dy="1" input="SourceAlpha"/>
      <feGaussianBlur stdDeviation="0.5" result="blur"/>
      <feFlood flood-color="#3895d9"/>
      <feComposite operator="in" in2="blur"/>
      <feComposite in="SourceGraphic"/>
    </filter>
  </defs>
  <g id="Component_8_1" data-name="Component 8 – 1" clip-path="url(#clip-path)">
    <g id="Rectangle_61" data-name="Rectangle 61" fill="none" stroke="#969696" stroke-width="3">
      <rect width="810" height="500" rx="36" stroke="none"/>
      <rect x="1.5" y="1.5" width="807" height="497" rx="34.5" fill="none"/>
    </g>
    <g transform="matrix(1, 0, 0, 1, 0, 0)" filter="url(#Path_38)">
      <g id="Path_38-2" data-name="Path 38" transform="translate(461 105.64)" fill="none">
        <path d="M160.682,0A160.682,160.682,0,1,1,0,160.682,160.683,160.683,0,0,1,160.682,0Z" stroke="none"/>
        <path d="M 160.6824951171875 2 C 149.9147796630859 2 139.1544189453125 3.08465576171875 128.7003326416016 5.223876953125 C 118.5129089355469 7.30853271484375 108.4922485351562 10.41912841796875 98.91670227050781 14.46923828125 C 89.51457214355469 18.44598388671875 80.44599914550781 23.3682861328125 71.96299743652344 29.09927368164062 C 63.56002807617188 34.77621459960938 55.65823364257812 41.29583740234375 48.47705078125 48.47705078125 C 41.29583740234375 55.65823364257812 34.77621459960938 63.56002807617188 29.09927368164062 71.96299743652344 C 23.3682861328125 80.44599914550781 18.44598388671875 89.51457214355469 14.46923828125 98.91670227050781 C 10.41912841796875 108.4922485351562 7.30853271484375 118.5129089355469 5.223876953125 128.7003326416016 C 3.08465576171875 139.1544189453125 2 149.9147796630859 2 160.6824951171875 C 2 171.4502105712891 3.08465576171875 182.2105712890625 5.223876953125 192.6646575927734 C 7.30853271484375 202.8520812988281 10.41912841796875 212.8727111816406 14.46923828125 222.4482421875 C 18.44598388671875 231.8504028320312 23.3682861328125 240.9189453125 29.09927368164062 249.4019927978516 C 34.77621459960938 257.8049011230469 41.29583740234375 265.7067565917969 48.47705078125 272.887939453125 C 55.65823364257812 280.0691528320312 63.56002807617188 286.5887756347656 71.96299743652344 292.2657165527344 C 80.44599914550781 297.9967041015625 89.51457214355469 302.9190063476562 98.91670227050781 306.895751953125 C 108.4922485351562 310.9458618164062 118.5129089355469 314.0564575195312 128.7003326416016 316.1410827636719 C 139.1544189453125 318.2803344726562 149.9147796630859 319.364990234375 160.6824951171875 319.364990234375 C 171.4502105712891 319.364990234375 182.2105407714844 318.2803344726562 192.6646575927734 316.1410827636719 C 202.8520812988281 314.0564575195312 212.8727111816406 310.9458618164062 222.4482421875 306.895751953125 C 231.8504028320312 302.9190063476562 240.9189453125 297.9967041015625 249.4019927978516 292.2657165527344 C 257.8049011230469 286.5887756347656 265.7067565917969 280.0691528320312 272.887939453125 272.887939453125 C 280.0691528320312 265.7067565917969 286.5887756347656 257.8049011230469 292.2657165527344 249.4019927978516 C 297.9967041015625 240.9189453125 302.9190063476562 231.8504028320312 306.895751953125 222.4482421875 C 310.9458618164062 212.8727111816406 314.0564575195312 202.8520812988281 316.1410827636719 192.6646575927734 C 318.2803344726562 182.2105407714844 319.364990234375 171.4502105712891 319.364990234375 160.6824951171875 C 319.364990234375 149.9147796630859 318.2803344726562 139.1544189453125 316.1410827636719 128.7003326416016 C 314.0564575195312 118.5129089355469 310.9458618164062 108.4922485351562 306.895751953125 98.91670227050781 C 302.9190063476562 89.51457214355469 297.9967041015625 80.44599914550781 292.2657165527344 71.96299743652344 C 286.5887756347656 63.56002807617188 280.0691528320312 55.65823364257812 272.887939453125 48.47705078125 C 265.7067565917969 41.29583740234375 257.8049011230469 34.77621459960938 249.4019927978516 29.09927368164062 C 240.9189453125 23.3682861328125 231.8504028320312 18.44598388671875 222.4482421875 14.46923828125 C 212.8727111816406 10.41912841796875 202.8520812988281 7.30853271484375 192.6646575927734 5.223876953125 C 182.2105712890625 3.08465576171875 171.4502105712891 2 160.6824951171875 2 M 160.6824951171875 0 C 249.4249572753906 0 321.364990234375 71.94000244140625 321.364990234375 160.6824951171875 C 321.364990234375 249.4249572753906 249.4249572753906 321.364990234375 160.6824951171875 321.364990234375 C 71.94000244140625 321.364990234375 0 249.4249572753906 0 160.6824951171875 C 0 71.94000244140625 71.94000244140625 0 160.6824951171875 0 Z" stroke="none" fill="#3895d9"/>
      </g>
    </g>
    <g id="package-cube-box-for-delivery_1_" data-name="package-cube-box-for-delivery (1)" transform="translate(632.08 279.323)">
      <path id="Path_20" data-name="Path 20" d="M1.09,65.312,1,27.836A2.566,2.566,0,0,1,4.576,25.47L38.692,40.054a2.566,2.566,0,0,1,1.558,2.354l.089,37.476a2.566,2.566,0,0,1-3.575,2.366L2.647,67.666A2.566,2.566,0,0,1,1.09,65.312ZM79.257,29.6,47.774,43.235l.082,34.682L79.339,64.282,79.257,29.6m1.274-4.521A2.569,2.569,0,0,1,83.1,27.642l.089,37.476a2.566,2.566,0,0,1-1.547,2.361L47.6,82.224a2.561,2.561,0,0,1-3.586-2.349L43.922,42.4a2.566,2.566,0,0,1,1.547-2.361L79.515,25.293a2.56,2.56,0,0,1,1.015-.214ZM41.847,3.97,9.188,18.552,41.915,32.979l18.1-8.083,14.554-6.5L41.847,3.97M41.837,0a2.567,2.567,0,0,1,1.041.218L78.773,16.041a2.566,2.566,0,0,1,.011,4.692L42.965,36.726a2.567,2.567,0,0,1-2.082,0l-4.916-2.167L4.989,20.908a2.566,2.566,0,0,1-.011-4.692L40.8.223A2.565,2.565,0,0,1,41.837,0Z" transform="translate(-1.001 0)" fill="#3895d9"/>
    </g>
    <text id="localhost_ネットワーク" data-name="localhost
ネットワーク" transform="translate(44 212)" fill="#969696" font-size="15" font-family="AcuminPro-Bold, Acumin Pro" font-weight="700"><tspan x="117.407" y="11">localhost</tspan><tspan font-size="30" font-family="PingFangSC-Semibold, PingFang SC" font-weight="600"><tspan x="59.5" y="53">ネットワーク</tspan></tspan></text>
    <text id="Docker_ネットワーク" data-name="Docker
ネットワーク" transform="translate(465.726 161.401)" fill="#3895d9" font-size="40" font-family="AcuminPro-Bold, Acumin Pro" font-weight="700"><tspan x="88.464" y="29">Docker</tspan><tspan font-size="30" font-family="PingFangSC-Semibold, PingFang SC" font-weight="600"><tspan x="65.484" y="88">ネットワーク</tspan></tspan></text>
    <g id="package-cube-box-for-delivery_1_2" data-name="package-cube-box-for-delivery (1)" transform="translate(525.273 279.323)">
      <path id="Path_20-2" data-name="Path 20" d="M1.09,65.312,1,27.836A2.566,2.566,0,0,1,4.576,25.47L38.692,40.054a2.566,2.566,0,0,1,1.558,2.354l.089,37.476a2.566,2.566,0,0,1-3.575,2.366L2.647,67.666A2.566,2.566,0,0,1,1.09,65.312ZM79.257,29.6,47.774,43.235l.082,34.682L79.339,64.282,79.257,29.6m1.274-4.521A2.569,2.569,0,0,1,83.1,27.642l.089,37.476a2.566,2.566,0,0,1-1.547,2.361L47.6,82.224a2.561,2.561,0,0,1-3.586-2.349L43.922,42.4a2.566,2.566,0,0,1,1.547-2.361L79.515,25.293a2.56,2.56,0,0,1,1.015-.214ZM41.847,3.97,9.188,18.552,41.915,32.979l18.1-8.083,14.554-6.5L41.847,3.97M41.837,0a2.567,2.567,0,0,1,1.041.218L78.773,16.041a2.566,2.566,0,0,1,.011,4.692L42.965,36.726a2.567,2.567,0,0,1-2.082,0L4.989,20.908a2.566,2.566,0,0,1-.011-4.692L40.8.223A2.565,2.565,0,0,1,41.837,0Z" transform="translate(-1.001 0)" fill="#3895d9"/>
    </g>
    <g id="Path_39" data-name="Path 39" transform="translate(32 111.635)" fill="none">
      <path d="M160.682,0A160.682,160.682,0,1,1,0,160.682,160.683,160.683,0,0,1,160.682,0Z" stroke="none"/>
      <path d="M 160.6824951171875 2 C 149.9147796630859 2 139.1544189453125 3.08465576171875 128.7003326416016 5.223876953125 C 118.5129089355469 7.30853271484375 108.4922485351562 10.41912841796875 98.91670227050781 14.46923828125 C 89.51457214355469 18.44598388671875 80.44599914550781 23.3682861328125 71.96299743652344 29.09927368164062 C 63.56002807617188 34.77621459960938 55.65823364257812 41.29583740234375 48.47705078125 48.47705078125 C 41.29583740234375 55.65823364257812 34.77621459960938 63.56002807617188 29.09927368164062 71.96299743652344 C 23.3682861328125 80.44599914550781 18.44598388671875 89.51457214355469 14.46923828125 98.91670227050781 C 10.41912841796875 108.4922485351562 7.30853271484375 118.5129089355469 5.223876953125 128.7003326416016 C 3.08465576171875 139.1544189453125 2 149.9147796630859 2 160.6824951171875 C 2 171.4502105712891 3.08465576171875 182.2105712890625 5.223876953125 192.6646575927734 C 7.30853271484375 202.8520812988281 10.41912841796875 212.8727111816406 14.46923828125 222.4482421875 C 18.44598388671875 231.8504028320312 23.3682861328125 240.9189453125 29.09927368164062 249.4019927978516 C 34.77621459960938 257.8049011230469 41.29583740234375 265.7067565917969 48.47705078125 272.887939453125 C 55.65823364257812 280.0691528320312 63.56002807617188 286.5887756347656 71.96299743652344 292.2657165527344 C 80.44599914550781 297.9967041015625 89.51457214355469 302.9190063476562 98.91670227050781 306.895751953125 C 108.4922485351562 310.9458618164062 118.5129089355469 314.0564575195312 128.7003326416016 316.1410827636719 C 139.1544189453125 318.2803344726562 149.9147796630859 319.364990234375 160.6824951171875 319.364990234375 C 171.4502105712891 319.364990234375 182.2105407714844 318.2803344726562 192.6646575927734 316.1410827636719 C 202.8520812988281 314.0564575195312 212.8727111816406 310.9458618164062 222.4482421875 306.895751953125 C 231.8504028320312 302.9190063476562 240.9189453125 297.9967041015625 249.4019927978516 292.2657165527344 C 257.8049011230469 286.5887756347656 265.7067565917969 280.0691528320312 272.887939453125 272.887939453125 C 280.0691528320312 265.7067565917969 286.5887756347656 257.8049011230469 292.2657165527344 249.4019927978516 C 297.9967041015625 240.9189453125 302.9190063476562 231.8504028320312 306.895751953125 222.4482421875 C 310.9458618164062 212.8727111816406 314.0564575195312 202.8520812988281 316.1410827636719 192.6646575927734 C 318.2803344726562 182.2105407714844 319.364990234375 171.4502105712891 319.364990234375 160.6824951171875 C 319.364990234375 149.9147796630859 318.2803344726562 139.1544189453125 316.1410827636719 128.7003326416016 C 314.0564575195312 118.5129089355469 310.9458618164062 108.4922485351562 306.895751953125 98.91670227050781 C 302.9190063476562 89.51457214355469 297.9967041015625 80.44599914550781 292.2657165527344 71.96299743652344 C 286.5887756347656 63.56002807617188 280.0691528320312 55.65823364257812 272.887939453125 48.47705078125 C 265.7067565917969 41.29583740234375 257.8049011230469 34.77621459960938 249.4019927978516 29.09927368164062 C 240.9189453125 23.3682861328125 231.8504028320312 18.44598388671875 222.4482421875 14.46923828125 C 212.8727111816406 10.41912841796875 202.8520812988281 7.30853271484375 192.6646575927734 5.223876953125 C 182.2105712890625 3.08465576171875 171.4502105712891 2 160.6824951171875 2 M 160.6824951171875 0 C 249.4249572753906 0 321.364990234375 71.94000244140625 321.364990234375 160.6824951171875 C 321.364990234375 249.4249572753906 249.4249572753906 321.364990234375 160.6824951171875 321.364990234375 C 71.94000244140625 321.364990234375 0 249.4249572753906 0 160.6824951171875 C 0 71.94000244140625 71.94000244140625 0 160.6824951171875 0 Z" stroke="none" fill="#969696"/>
    </g>
    <text id="_3000" data-name="3000" transform="translate(545.5 369)" fill="#bebebe" font-size="30" font-family="AcuminPro-Bold, Acumin Pro" font-weight="700"><tspan x="-35.28" y="0">3000</tspan></text>
    <text id="_3000-2" data-name="3000" transform="translate(318.5 369)" fill="#bebebe" font-size="30" font-family="AcuminPro-Bold, Acumin Pro" font-weight="700"><tspan x="-35.28" y="0">3000</tspan></text>
    <text id="_publish_3000:3000" data-name="—publish=3000:3000" transform="translate(375.5 320)" fill="#5a8ded" font-size="30" font-family="AcuminPro-Bold, Acumin Pro" font-weight="700"><tspan x="-150.165" y="0">—publish=3000:3000</tspan></text>
    <text id="ホストマシン" transform="translate(43 161)" fill="#969696" font-size="30" font-family="PingFangSC-Semibold, PingFang SC" font-weight="600"><tspan x="59.5" y="32">ホストマシン</tspan></text>
    <g id="Ellipse_22" data-name="Ellipse 22" transform="translate(332 328)" fill="#eb21f4" stroke="#707070" stroke-width="1">
      <circle cx="9" cy="9" r="9" stroke="none"/>
      <circle cx="9" cy="9" r="8.5" fill="none"/>
    </g>
    <g id="Ellipse_23" data-name="Ellipse 23" transform="translate(537 328)" fill="#eb21f4" stroke="#707070" stroke-width="1">
      <circle cx="9" cy="9" r="9" stroke="none"/>
      <circle cx="9" cy="9" r="8.5" fill="none"/>
    </g>
    <line id="Line_10" data-name="Line 10" y1="1" x2="204" transform="translate(341.5 336.5)" fill="none" stroke="#bebebe" stroke-width="5"/>
    <text id="ポートとポートを接続" transform="translate(434 405)" fill="#eb21f4" font-size="30" font-family="PingFangSC-Semibold, PingFang SC" font-weight="600"><tspan x="-150" y="0">ポートとポートを接続</tspan></text>
    <g id="Ellipse_24" data-name="Ellipse 24" transform="translate(641 328)" fill="#eb21f4" stroke="#707070" stroke-width="1">
      <circle cx="9" cy="9" r="9" stroke="none"/>
      <circle cx="9" cy="9" r="8.5" fill="none"/>
    </g>
    <g id="Group_7" data-name="Group 7" transform="translate(1699 -539)">
      <g id="left-arrow" transform="translate(-1373 640.805)">
        <g id="Group_4" data-name="Group 4" transform="translate(0 71.229)">
          <g id="Group_3" data-name="Group 3" transform="translate(0 0)">
            <path id="Path_40" data-name="Path 40" d="M105.077,235.318H4.423c-2.443,0-4.423.651-4.423,1.453s1.98,1.453,4.423,1.453H105.077c2.443,0,4.423-.651,4.423-1.453S107.52,235.318,105.077,235.318Z" transform="translate(0 -235.318)" fill="#17766b"/>
          </g>
        </g>
        <g id="Group_6" data-name="Group 6" transform="translate(0 58.83)">
          <g id="Group_5" data-name="Group 5" transform="translate(0 0)">
            <path id="Path_41" data-name="Path 41" d="M3.508,72.683,14.88,61.31a1.453,1.453,0,0,0-2.055-2.055l-12.4,12.4a1.453,1.453,0,0,0,0,2.055l12.4,12.4a1.453,1.453,0,1,0,2.055-2.055Z" transform="translate(0 -58.83)" fill="#17766b"/>
          </g>
        </g>
      </g>
      <g id="left-arrow-2" data-name="left-arrow" transform="translate(-1320 699.635)">
        <g id="Group_4-2" data-name="Group 4" transform="translate(0 12.399)">
          <g id="Group_3-2" data-name="Group 3" transform="translate(0 0)">
            <path id="Path_40-2" data-name="Path 40" d="M4.423,235.318H105.077c2.443,0,4.423.651,4.423,1.453s-1.98,1.453-4.423,1.453H4.423c-2.443,0-4.423-.651-4.423-1.453S1.98,235.318,4.423,235.318Z" transform="translate(0 -235.318)" fill="#17766b"/>
          </g>
        </g>
        <g id="Group_6-2" data-name="Group 6" transform="translate(94.194 0)">
          <g id="Group_5-2" data-name="Group 5" transform="translate(0 0)">
            <path id="Path_41-2" data-name="Path 41" d="M11.8,72.682.426,61.31a1.453,1.453,0,0,1,2.055-2.055l12.4,12.4a1.453,1.453,0,0,1,0,2.055l-12.4,12.4A1.453,1.453,0,0,1,.426,84.054Z" transform="translate(0 -58.83)" fill="#17766b"/>
          </g>
        </g>
      </g>
    </g>
    <text id="分離したネットワーク" transform="translate(206 124)" fill="#17766b" font-size="30" font-family="PingFangSC-Semibold, PingFang SC" font-weight="600"><tspan x="51.5" y="32">分離したネットワーク</tspan></text>
  </g>
</svg>
