<svg xmlns="http://www.w3.org/2000/svg" xmlns:xlink="http://www.w3.org/1999/xlink" width="810" height="500" viewBox="0 0 810 500">
  <defs>
    <clipPath id="clip-path">
      <rect width="810" height="500" fill="none"/>
    </clipPath>
    <filter id="Path_42" x="96.5" y="113.668" width="297.111" height="297.111" filterUnits="userSpaceOnUse">
      <feOffset dx="1" dy="1" input="SourceAlpha"/>
      <feGaussianBlur stdDeviation="0.5" result="blur"/>
      <feFlood flood-color="#3895d9"/>
      <feComposite operator="in" in2="blur"/>
      <feComposite in="SourceGraphic"/>
    </filter>
    <filter id="Path_46" x="427.245" y="113.668" width="297.111" height="297.111" filterUnits="userSpaceOnUse">
      <feOffset dx="1" dy="1" input="SourceAlpha"/>
      <feGaussianBlur stdDeviation="0.5" result="blur-2"/>
      <feFlood flood-color="#3895d9"/>
      <feComposite operator="in" in2="blur-2"/>
      <feComposite in="SourceGraphic"/>
    </filter>
  </defs>
  <g id="Component_13_1" data-name="Component 13 – 1" clip-path="url(#clip-path)">
    <g id="Rectangle_62" data-name="Rectangle 62" fill="#fff" stroke="#969696" stroke-width="3">
      <rect width="810" height="500" rx="36" stroke="none"/>
      <rect x="1.5" y="1.5" width="807" height="497" rx="34.5" fill="none"/>
    </g>
    <g transform="matrix(1, 0, 0, 1, 0, 0)" filter="url(#Path_42)">
      <g id="Path_42-2" data-name="Path 42" transform="translate(97 114.17)" fill="none">
        <path d="M147.055,0A147.055,147.055,0,1,1,0,147.055,147.055,147.055,0,0,1,147.055,0Z" stroke="none"/>
        <path d="M 147.055419921875 5 C 137.4138793945312 5 127.7798767089844 5.971038818359375 118.4210052490234 7.886138916015625 C 109.3025512695312 9.752044677734375 100.3333435058594 12.5362548828125 91.76258850097656 16.161376953125 C 83.34629821777344 19.72116088867188 75.22837829589844 24.12747192382812 67.63438415527344 29.25787353515625 C 60.1112060546875 34.34042358398438 53.03662109375 40.17755126953125 46.60708618164062 46.60708618164062 C 40.17755126953125 53.03662109375 34.34042358398438 60.1112060546875 29.25787353515625 67.63438415527344 C 24.12747192382812 75.22837829589844 19.72116088867188 83.34629821777344 16.161376953125 91.76258850097656 C 12.5362548828125 100.3333435058594 9.752044677734375 109.3025512695312 7.886138916015625 118.4210052490234 C 5.971038818359375 127.7798767089844 5 137.4138793945312 5 147.055419921875 C 5 156.6969604492188 5.971038818359375 166.3309631347656 7.886138916015625 175.6898345947266 C 9.752044677734375 184.8082885742188 12.5362548828125 193.7774963378906 16.161376953125 202.3482513427734 C 19.72116088867188 210.7645416259766 24.12747192382812 218.8824615478516 29.25787353515625 226.4764709472656 C 34.34042358398438 233.9996337890625 40.17755126953125 241.07421875 46.60708618164062 247.5037536621094 C 53.03662109375 253.9332885742188 60.1112060546875 259.7704162597656 67.63438415527344 264.8529663085938 C 75.22837829589844 269.9833679199219 83.34629821777344 274.3896789550781 91.76258850097656 277.949462890625 C 100.3333435058594 281.5745849609375 109.3025512695312 284.3587951660156 118.4210052490234 286.2247009277344 C 127.7798767089844 288.1398010253906 137.4138793945312 289.11083984375 147.055419921875 289.11083984375 C 156.6969604492188 289.11083984375 166.3309631347656 288.1398010253906 175.6898345947266 286.2247009277344 C 184.8082885742188 284.3587951660156 193.7774963378906 281.5745849609375 202.3482513427734 277.949462890625 C 210.7645416259766 274.3896789550781 218.8824615478516 269.9833679199219 226.4764709472656 264.8529663085938 C 233.9996337890625 259.7704162597656 241.07421875 253.9332885742188 247.5037536621094 247.5037536621094 C 253.9332885742188 241.07421875 259.7704162597656 233.9996337890625 264.8529663085938 226.4764709472656 C 269.9833679199219 218.8824615478516 274.3896789550781 210.7645416259766 277.949462890625 202.3482513427734 C 281.5745849609375 193.7774963378906 284.3587951660156 184.8082885742188 286.2247009277344 175.6898345947266 C 288.1398010253906 166.3309631347656 289.11083984375 156.6969604492188 289.11083984375 147.055419921875 C 289.11083984375 137.4138793945312 288.1398010253906 127.7798767089844 286.2247009277344 118.4210052490234 C 284.3587951660156 109.3025512695312 281.5745849609375 100.3333435058594 277.949462890625 91.76258850097656 C 274.3896789550781 83.34629821777344 269.9833679199219 75.22837829589844 264.8529663085938 67.63438415527344 C 259.7704162597656 60.1112060546875 253.9332885742188 53.03662109375 247.5037536621094 46.60708618164062 C 241.07421875 40.17755126953125 233.9996337890625 34.34042358398438 226.4764709472656 29.25787353515625 C 218.8824615478516 24.12747192382812 210.7645416259766 19.72116088867188 202.3482513427734 16.161376953125 C 193.7774963378906 12.5362548828125 184.8082885742188 9.752044677734375 175.6898345947266 7.886138916015625 C 166.3309631347656 5.971038818359375 156.6969604492188 5 147.055419921875 5 M 147.055419921875 0 C 228.2718811035156 0 294.11083984375 65.83895874023438 294.11083984375 147.055419921875 C 294.11083984375 228.2718811035156 228.2718811035156 294.11083984375 147.055419921875 294.11083984375 C 65.83895874023438 294.11083984375 0 228.2718811035156 0 147.055419921875 C 0 65.83895874023438 65.83895874023438 0 147.055419921875 0 Z" stroke="none" fill="#3895d9"/>
      </g>
    </g>
    <g id="package-cube-box-for-delivery_1_" data-name="package-cube-box-for-delivery (1)" transform="translate(263.237 250.331)">
      <path id="Path_20" data-name="Path 20" d="M1.065,46.835,1,19.961a1.84,1.84,0,0,1,2.564-1.7L28.029,28.723a1.84,1.84,0,0,1,1.117,1.688l.064,26.874a1.84,1.84,0,0,1-2.564,1.7L2.181,48.523A1.84,1.84,0,0,1,1.065,46.835ZM57.118,21.226,34.542,31l.059,24.87L57.177,46.1l-.059-24.87m.914-3.242a1.842,1.842,0,0,1,1.844,1.838L59.939,46.7a1.84,1.84,0,0,1-1.109,1.693L34.415,58.963a1.836,1.836,0,0,1-2.572-1.684L31.78,30.4a1.84,1.84,0,0,1,1.109-1.693L57.3,18.137a1.835,1.835,0,0,1,.728-.154ZM30.291,2.847,6.872,13.3,30.34,23.649l12.982-5.8,10.437-4.66L30.291,2.847M30.285,0a1.841,1.841,0,0,1,.747.156L56.771,11.5a1.84,1.84,0,0,1,.008,3.364L31.093,26.336a1.84,1.84,0,0,1-1.493,0l-3.525-1.554L3.861,14.993a1.84,1.84,0,0,1-.008-3.364L29.539.16A1.84,1.84,0,0,1,30.285,0Z" transform="translate(-1.001 0)" fill="#3895d9"/>
    </g>
    <g id="package-cube-box-for-delivery_1_2" data-name="package-cube-box-for-delivery (1)" transform="translate(165.199 250.331)">
      <path id="Path_20-2" data-name="Path 20" d="M1.065,46.835,1,19.961a1.84,1.84,0,0,1,2.564-1.7L28.029,28.723a1.84,1.84,0,0,1,1.117,1.688l.064,26.874a1.84,1.84,0,0,1-2.564,1.7L2.181,48.523A1.84,1.84,0,0,1,1.065,46.835ZM57.118,21.226,34.542,31l.059,24.87L57.177,46.1l-.059-24.87m.914-3.242a1.842,1.842,0,0,1,1.844,1.838L59.939,46.7a1.84,1.84,0,0,1-1.109,1.693L34.415,58.963a1.836,1.836,0,0,1-2.572-1.684L31.78,30.4a1.84,1.84,0,0,1,1.109-1.693L57.3,18.137a1.835,1.835,0,0,1,.728-.154ZM30.291,2.847,6.872,13.3,30.34,23.649l12.982-5.8,10.437-4.66L30.291,2.847M30.285,0a1.841,1.841,0,0,1,.747.156L56.771,11.5a1.84,1.84,0,0,1,.008,3.364L31.093,26.336a1.84,1.84,0,0,1-1.493,0L3.861,14.993a1.84,1.84,0,0,1-.008-3.364L29.539.16A1.84,1.84,0,0,1,30.285,0Z" transform="translate(-1.001 0)" fill="#3895d9"/>
    </g>
    <text id="_01" data-name="01" transform="translate(194.33 243.918)" fill="#3895d9" font-size="22" font-family="AcuminPro-Bold, Acumin Pro" font-weight="700"><tspan x="-10.978" y="0">01</tspan></text>
    <text id="_02" data-name="02" transform="translate(292.409 242.918)" fill="#3895d9" font-size="21" font-family="AcuminPro-Bold, Acumin Pro" font-weight="700"><tspan x="-12.064" y="0">02</tspan></text>
    <g transform="matrix(1, 0, 0, 1, 0, 0)" filter="url(#Path_46)">
      <g id="Path_46-2" data-name="Path 46" transform="translate(427.74 114.17)" fill="none">
        <path d="M147.055,0A147.055,147.055,0,1,1,0,147.055,147.055,147.055,0,0,1,147.055,0Z" stroke="none"/>
        <path d="M 147.055419921875 5 C 137.4138793945312 5 127.7798767089844 5.971038818359375 118.4210052490234 7.886138916015625 C 109.3025512695312 9.752044677734375 100.3333435058594 12.5362548828125 91.76258850097656 16.161376953125 C 83.34629821777344 19.72116088867188 75.22837829589844 24.12747192382812 67.63438415527344 29.25787353515625 C 60.1112060546875 34.34042358398438 53.03662109375 40.17755126953125 46.60708618164062 46.60708618164062 C 40.17755126953125 53.03662109375 34.34042358398438 60.1112060546875 29.25787353515625 67.63438415527344 C 24.12747192382812 75.22837829589844 19.72116088867188 83.34629821777344 16.161376953125 91.76258850097656 C 12.5362548828125 100.3333435058594 9.752044677734375 109.3025512695312 7.886138916015625 118.4210052490234 C 5.971038818359375 127.7798767089844 5 137.4138793945312 5 147.055419921875 C 5 156.6969604492188 5.971038818359375 166.3309631347656 7.886138916015625 175.6898345947266 C 9.752044677734375 184.8082885742188 12.5362548828125 193.7774963378906 16.161376953125 202.3482513427734 C 19.72116088867188 210.7645416259766 24.12747192382812 218.8824615478516 29.25787353515625 226.4764709472656 C 34.34042358398438 233.9996337890625 40.17755126953125 241.07421875 46.60708618164062 247.5037536621094 C 53.03662109375 253.9332885742188 60.1112060546875 259.7704162597656 67.63438415527344 264.8529663085938 C 75.22837829589844 269.9833679199219 83.34629821777344 274.3896789550781 91.76258850097656 277.949462890625 C 100.3333435058594 281.5745849609375 109.3025512695312 284.3587951660156 118.4210052490234 286.2247009277344 C 127.7798767089844 288.1398010253906 137.4138793945312 289.11083984375 147.055419921875 289.11083984375 C 156.6969604492188 289.11083984375 166.3309631347656 288.1398010253906 175.6898345947266 286.2247009277344 C 184.8082885742188 284.3587951660156 193.7774963378906 281.5745849609375 202.3482513427734 277.949462890625 C 210.7645416259766 274.3896789550781 218.8824615478516 269.9833679199219 226.4764709472656 264.8529663085938 C 233.9996337890625 259.7704162597656 241.07421875 253.9332885742188 247.5037536621094 247.5037536621094 C 253.9332885742188 241.07421875 259.7704162597656 233.9996337890625 264.8529663085938 226.4764709472656 C 269.9833679199219 218.8824615478516 274.3896789550781 210.7645416259766 277.949462890625 202.3482513427734 C 281.5745849609375 193.7774963378906 284.3587951660156 184.8082885742188 286.2247009277344 175.6898345947266 C 288.1398010253906 166.3309631347656 289.11083984375 156.6969604492188 289.11083984375 147.055419921875 C 289.11083984375 137.4138793945312 288.1398010253906 127.7798767089844 286.2247009277344 118.4210052490234 C 284.3587951660156 109.3025512695312 281.5745849609375 100.3333435058594 277.949462890625 91.76258850097656 C 274.3896789550781 83.34629821777344 269.9833679199219 75.22837829589844 264.8529663085938 67.63438415527344 C 259.7704162597656 60.1112060546875 253.9332885742188 53.03662109375 247.5037536621094 46.60708618164062 C 241.07421875 40.17755126953125 233.9996337890625 34.34042358398438 226.4764709472656 29.25787353515625 C 218.8824615478516 24.12747192382812 210.7645416259766 19.72116088867188 202.3482513427734 16.161376953125 C 193.7774963378906 12.5362548828125 184.8082885742188 9.752044677734375 175.6898345947266 7.886138916015625 C 166.3309631347656 5.971038818359375 156.6969604492188 5 147.055419921875 5 M 147.055419921875 0 C 228.2718811035156 0 294.11083984375 65.83895874023438 294.11083984375 147.055419921875 C 294.11083984375 228.2718811035156 228.2718811035156 294.11083984375 147.055419921875 294.11083984375 C 65.83895874023438 294.11083984375 0 228.2718811035156 0 147.055419921875 C 0 65.83895874023438 65.83895874023438 0 147.055419921875 0 Z" stroke="none" fill="#3895d9"/>
      </g>
    </g>
    <g id="package-cube-box-for-delivery_1_3" data-name="package-cube-box-for-delivery (1)" transform="translate(597.368 248.073)">
      <path id="Path_20-3" data-name="Path 20" d="M1.065,46.835,1,19.961a1.84,1.84,0,0,1,2.564-1.7L28.029,28.723a1.84,1.84,0,0,1,1.117,1.688l.064,26.874a1.84,1.84,0,0,1-2.564,1.7L2.181,48.523A1.84,1.84,0,0,1,1.065,46.835ZM57.118,21.226,34.542,31l.059,24.87L57.177,46.1l-.059-24.87m.914-3.242a1.842,1.842,0,0,1,1.844,1.838L59.939,46.7a1.84,1.84,0,0,1-1.109,1.693L34.415,58.963a1.836,1.836,0,0,1-2.572-1.684L31.78,30.4a1.84,1.84,0,0,1,1.109-1.693L57.3,18.137a1.835,1.835,0,0,1,.728-.154ZM30.291,2.847,6.872,13.3,30.34,23.649l12.982-5.8,10.437-4.66L30.291,2.847M30.285,0a1.841,1.841,0,0,1,.747.156L56.771,11.5a1.84,1.84,0,0,1,.008,3.364L31.093,26.336a1.84,1.84,0,0,1-1.493,0l-3.525-1.554L3.861,14.993a1.84,1.84,0,0,1-.008-3.364L29.539.16A1.84,1.84,0,0,1,30.285,0Z" transform="translate(-1.001 0)" fill="#3895d9"/>
    </g>
    <g id="package-cube-box-for-delivery_1_4" data-name="package-cube-box-for-delivery (1)" transform="translate(499.33 248.073)">
      <path id="Path_20-4" data-name="Path 20" d="M1.065,46.835,1,19.961a1.84,1.84,0,0,1,2.564-1.7L28.029,28.723a1.84,1.84,0,0,1,1.117,1.688l.064,26.874a1.84,1.84,0,0,1-2.564,1.7L2.181,48.523A1.84,1.84,0,0,1,1.065,46.835ZM57.118,21.226,34.542,31l.059,24.87L57.177,46.1l-.059-24.87m.914-3.242a1.842,1.842,0,0,1,1.844,1.838L59.939,46.7a1.84,1.84,0,0,1-1.109,1.693L34.415,58.963a1.836,1.836,0,0,1-2.572-1.684L31.78,30.4a1.84,1.84,0,0,1,1.109-1.693L57.3,18.137a1.835,1.835,0,0,1,.728-.154ZM30.291,2.847,6.872,13.3,30.34,23.649l12.982-5.8,10.437-4.66L30.291,2.847M30.285,0a1.841,1.841,0,0,1,.747.156L56.771,11.5a1.84,1.84,0,0,1,.008,3.364L31.093,26.336a1.84,1.84,0,0,1-1.493,0L3.861,14.993a1.84,1.84,0,0,1-.008-3.364L29.539.16A1.84,1.84,0,0,1,30.285,0Z" transform="translate(-1.001 0)" fill="#3895d9"/>
    </g>
    <text id="_03" data-name="03" transform="translate(528.203 236.016)" fill="#3895d9" font-size="22" font-family="AcuminPro-Bold, Acumin Pro" font-weight="700"><tspan x="-12.716" y="0">03</tspan></text>
    <text id="_04" data-name="04" transform="translate(626.411 241.661)" fill="#3895d9" font-size="22" font-family="AcuminPro-Bold, Acumin Pro" font-weight="700"><tspan x="-12.925" y="0">04</tspan></text>
    <text id="net01" transform="translate(574.81 171.674)" fill="#3895d9" font-size="22" font-family="AcuminPro-Bold, Acumin Pro" font-weight="700"><tspan x="-27.599" y="0">net01</tspan></text>
    <text id="default" transform="translate(243.035 171.674)" fill="#3895d9" font-size="22" font-family="AcuminPro-Bold, Acumin Pro" font-weight="700"><tspan x="-35.838" y="0">default</tspan></text>
    <line id="Line_15" data-name="Line 15" x2="102.723" transform="translate(183.355 290.639)" fill="none" stroke="#969696" stroke-width="5"/>
    <line id="Line_16" data-name="Line 16" x2="102.723" transform="translate(510.713 289.51)" fill="none" stroke="#969696" stroke-width="5"/>
    <text id="接続可" transform="translate(234.416 323.234)" fill="#eb21f4" font-size="22" font-family="PingFangSC-Semibold, PingFang SC" font-weight="600"><tspan x="-33" y="0">接続可</tspan></text>
    <text id="接続可-2" data-name="接続可" transform="translate(574.191 323.234)" fill="#eb21f4" font-size="22" font-family="PingFangSC-Semibold, PingFang SC" font-weight="600"><tspan x="-33" y="0">接続可</tspan></text>
    <text id="接続不可" transform="translate(405.132 167.04)" fill="#eb21f4" font-size="33" font-family="PingFangSC-Semibold, PingFang SC" font-weight="600"><tspan x="-66" y="0">接続不可</tspan></text>
    <path id="Path_47" data-name="Path 47" d="M-638.522,3720.5" transform="translate(920.059 -3430.99)" fill="none" stroke="#707070" stroke-width="1"/>
    <path id="Path_48" data-name="Path 48" d="M-602.522,3724.223s110.362-201.884,217.887,0" transform="translate(895.348 -3444.327)" fill="none" stroke="#eb21f4" stroke-width="5"/>
    <text id="_3000" data-name="3000" transform="translate(163.975 313.363)" fill="#eb21f4" font-size="16" font-family="AcuminPro-Bold, Acumin Pro" font-weight="700"><tspan x="-18.816" y="0">3000</tspan></text>
    <text id="_3000-2" data-name="3000" transform="translate(305.078 319.007)" fill="#eb21f4" font-size="16" font-family="AcuminPro-Bold, Acumin Pro" font-weight="700"><tspan x="-18.816" y="0">3000</tspan></text>
    <text id="_3000-3" data-name="3000" transform="translate(499.235 313.363)" fill="#eb21f4" font-size="16" font-family="AcuminPro-Bold, Acumin Pro" font-weight="700"><tspan x="-18.816" y="0">3000</tspan></text>
    <text id="_3000-4" data-name="3000" transform="translate(639.209 319.007)" fill="#eb21f4" font-size="16" font-family="AcuminPro-Bold, Acumin Pro" font-weight="700"><tspan x="-18.816" y="0">3000</tspan></text>
    <g id="Ellipse_29" data-name="Ellipse 29" transform="translate(174.889 284.43)" fill="#eb21f4" stroke="#eb21f4" stroke-width="1">
      <circle cx="6.773" cy="6.773" r="6.773" stroke="none"/>
      <circle cx="6.773" cy="6.773" r="6.273" fill="none"/>
    </g>
    <g id="Ellipse_30" data-name="Ellipse 30" transform="translate(278.74 284.43)" fill="#eb21f4" stroke="#eb21f4" stroke-width="1">
      <circle cx="6.773" cy="6.773" r="6.773" stroke="none"/>
      <circle cx="6.773" cy="6.773" r="6.273" fill="none"/>
    </g>
    <g id="Ellipse_31" data-name="Ellipse 31" transform="translate(504.504 283.302)" fill="#eb21f4" stroke="#eb21f4" stroke-width="1">
      <circle cx="6.773" cy="6.773" r="6.773" stroke="none"/>
      <circle cx="6.773" cy="6.773" r="6.273" fill="none"/>
    </g>
    <g id="Ellipse_32" data-name="Ellipse 32" transform="translate(602.712 283.302)" fill="#eb21f4" stroke="#eb21f4" stroke-width="1">
      <circle cx="6.773" cy="6.773" r="6.773" stroke="none"/>
      <circle cx="6.773" cy="6.773" r="6.273" fill="none"/>
    </g>
  </g>
</svg>
