<svg xmlns="http://www.w3.org/2000/svg" xmlns:xlink="http://www.w3.org/1999/xlink" width="810" height="500" viewBox="0 0 810 500">
  <defs>
    <clipPath id="clip-path">
      <rect width="810" height="500" fill="none"/>
    </clipPath>
    <filter id="Path_42" x="214.5" y="44.135" width="385.08" height="385.08" filterUnits="userSpaceOnUse">
      <feOffset dx="1" dy="1" input="SourceAlpha"/>
      <feGaussianBlur stdDeviation="0.5" result="blur"/>
      <feFlood flood-color="#3895d9"/>
      <feComposite operator="in" in2="blur"/>
      <feComposite in="SourceGraphic"/>
    </filter>
  </defs>
  <g id="Component_10_1" data-name="Component 10 – 1" clip-path="url(#clip-path)">
    <g id="Rectangle_62" data-name="Rectangle 62" fill="#fff" stroke="#969696" stroke-width="3">
      <rect width="810" height="500" rx="36" stroke="none"/>
      <rect x="1.5" y="1.5" width="807" height="497" rx="34.5" fill="none"/>
    </g>
    <g transform="matrix(1, 0, 0, 1, 0, 0)" filter="url(#Path_42)">
      <g id="Path_42-2" data-name="Path 42" transform="translate(215 44.64)" fill="none">
        <path d="M191.04,0C296.548,0,382.08,85.531,382.08,191.04S296.548,382.08,191.04,382.08,0,296.548,0,191.04,85.531,0,191.04,0Z" stroke="none"/>
        <path d="M 191.0399169921875 4.999969482421875 C 178.4140777587891 4.999969482421875 165.7976531982422 6.27166748046875 153.5410766601562 8.779693603515625 C 141.5985412597656 11.2235107421875 129.8515472412109 14.86996459960938 118.6263427734375 19.61785888671875 C 107.603759765625 24.280029296875 96.97213745117188 30.05072021484375 87.02670288085938 36.76971435546875 C 77.17449951171875 43.42575073242188 67.90975952148438 51.06985473632812 59.48980712890625 59.48980712890625 C 51.06985473632812 67.90975952148438 43.42575073242188 77.17449951171875 36.76971435546875 87.02670288085938 C 30.05072021484375 96.97213745117188 24.280029296875 107.603759765625 19.61785888671875 118.6263427734375 C 14.86996459960938 129.8515472412109 11.2235107421875 141.5985412597656 8.779693603515625 153.5410766601562 C 6.27166748046875 165.7976531982422 4.999969482421875 178.4140777587891 4.999969482421875 191.0399169921875 C 4.999969482421875 203.6657562255859 6.27166748046875 216.2821807861328 8.779693603515625 228.5387573242188 C 11.2235107421875 240.4812316894531 14.86996459960938 252.2282867431641 19.61785888671875 263.4534912109375 C 24.280029296875 274.47607421875 30.05072021484375 285.1076965332031 36.76971435546875 295.0531311035156 C 43.42575073242188 304.9053344726562 51.06985473632812 314.1700744628906 59.48980712890625 322.5899658203125 C 67.90975952148438 331.0099182128906 77.17449951171875 338.6540832519531 87.02670288085938 345.31005859375 C 96.97213745117188 352.0290832519531 107.603759765625 357.7997436523438 118.6263427734375 362.4619140625 C 129.8515472412109 367.2098083496094 141.5985412597656 370.8562927246094 153.5410766601562 373.3000793457031 C 165.7976531982422 375.8081359863281 178.4140777587891 377.0798034667969 191.0399169921875 377.0798034667969 C 203.6657562255859 377.0798034667969 216.2821807861328 375.8081359863281 228.5387573242188 373.3000793457031 C 240.4812316894531 370.8562927246094 252.2282867431641 367.2098083496094 263.4534912109375 362.4619140625 C 274.47607421875 357.7997436523438 285.1076965332031 352.0290832519531 295.0531311035156 345.31005859375 C 304.9053344726562 338.6540832519531 314.1700744628906 331.0099182128906 322.5899658203125 322.5899658203125 C 331.0099182128906 314.1700744628906 338.6540832519531 304.9053344726562 345.31005859375 295.0531311035156 C 352.0290832519531 285.1076965332031 357.7997436523438 274.47607421875 362.4619140625 263.4534912109375 C 367.2098083496094 252.2282867431641 370.8562927246094 240.4812316894531 373.3000793457031 228.5387573242188 C 375.8081359863281 216.2821807861328 377.0798034667969 203.6657562255859 377.0798034667969 191.0399169921875 C 377.0798034667969 178.4140777587891 375.8081359863281 165.7976531982422 373.3000793457031 153.5410766601562 C 370.8562927246094 141.5985412597656 367.2098083496094 129.8515472412109 362.4619140625 118.6263427734375 C 357.7997436523438 107.603759765625 352.0290832519531 96.97213745117188 345.31005859375 87.02670288085938 C 338.6540832519531 77.17449951171875 331.0099182128906 67.90975952148438 322.5899658203125 59.48980712890625 C 314.1700744628906 51.06985473632812 304.9053344726562 43.42575073242188 295.0531311035156 36.76971435546875 C 285.1076965332031 30.05072021484375 274.47607421875 24.280029296875 263.4534912109375 19.61785888671875 C 252.2282867431641 14.86996459960938 240.4812316894531 11.2235107421875 228.5387573242188 8.779693603515625 C 216.2821807861328 6.27166748046875 203.6657562255859 4.999969482421875 191.0399169921875 4.999969482421875 M 191.0399169921875 -3.0517578125e-05 C 296.54833984375 -3.0517578125e-05 382.0798034667969 85.531494140625 382.0798034667969 191.0399169921875 C 382.0798034667969 296.54833984375 296.54833984375 382.0798034667969 191.0399169921875 382.0798034667969 C 85.531494140625 382.0798034667969 -3.0517578125e-05 296.54833984375 -3.0517578125e-05 191.0399169921875 C -3.0517578125e-05 85.531494140625 85.531494140625 -3.0517578125e-05 191.0399169921875 -3.0517578125e-05 Z" stroke="none" fill="#3895d9"/>
      </g>
    </g>
    <g id="package-cube-box-for-delivery_1_" data-name="package-cube-box-for-delivery (1)" transform="translate(418.401 251.138)">
      <path id="Path_20" data-name="Path 20" d="M1.106,77.651,1,33.095a3.051,3.051,0,0,1,4.251-2.813L45.813,47.621a3.051,3.051,0,0,1,1.852,2.8l.105,44.556a3.051,3.051,0,0,1-4.251,2.813L2.958,80.45A3.051,3.051,0,0,1,1.106,77.651ZM94.041,35.192,56.61,51.4l.1,41.235L94.139,76.427l-.1-41.235m1.515-5.375a3.054,3.054,0,0,1,3.057,3.047l.105,44.556a3.051,3.051,0,0,1-1.839,2.807L56.4,97.758a3.045,3.045,0,0,1-4.264-2.792l-.105-44.556A3.051,3.051,0,0,1,53.87,47.6L94.349,30.071a3.043,3.043,0,0,1,1.207-.255ZM49.563,4.72,10.735,22.057,49.645,39.21,71.169,29.6l17.3-7.726L49.563,4.72M49.552,0A3.052,3.052,0,0,1,50.79.259L93.466,19.072a3.051,3.051,0,0,1,.013,5.578L50.893,43.665a3.051,3.051,0,0,1-2.475.006l-5.844-2.576L5.742,24.858a3.051,3.051,0,0,1-.013-5.578L48.315.265A3.05,3.05,0,0,1,49.552,0Z" transform="translate(-1.001 0)" fill="#3895d9"/>
    </g>
    <text id="Docker_Network" data-name="Docker
Network" transform="translate(220.619 110.937)" fill="#3895d9" font-size="20" font-family="AcuminPro-Bold, Acumin Pro" font-weight="700"><tspan x="151.349" y="15">Docker</tspan><tspan x="145.009" y="43">Network</tspan></text>
    <g id="package-cube-box-for-delivery_1_2" data-name="package-cube-box-for-delivery (1)" transform="translate(291.416 251.138)">
      <path id="Path_20-2" data-name="Path 20" d="M1.106,77.651,1,33.095a3.051,3.051,0,0,1,4.251-2.813L45.813,47.621a3.051,3.051,0,0,1,1.852,2.8l.105,44.556a3.051,3.051,0,0,1-4.251,2.813L2.958,80.45A3.051,3.051,0,0,1,1.106,77.651ZM94.041,35.192,56.61,51.4l.1,41.235L94.139,76.427l-.1-41.235m1.515-5.375a3.054,3.054,0,0,1,3.057,3.047l.105,44.556a3.051,3.051,0,0,1-1.839,2.807L56.4,97.758a3.045,3.045,0,0,1-4.264-2.792l-.105-44.556A3.051,3.051,0,0,1,53.87,47.6L94.349,30.071a3.043,3.043,0,0,1,1.207-.255ZM49.563,4.72,10.735,22.057,49.645,39.21,71.169,29.6l17.3-7.726L49.563,4.72M49.552,0A3.052,3.052,0,0,1,50.79.259L93.466,19.072a3.051,3.051,0,0,1,.013,5.578L50.893,43.665a3.051,3.051,0,0,1-2.475.006L5.742,24.858a3.051,3.051,0,0,1-.013-5.578L48.315.265A3.05,3.05,0,0,1,49.552,0Z" transform="translate(-1.001 0)" fill="#3895d9"/>
    </g>
    <text id="_3000" data-name="3000" transform="translate(459.813 363.112)" fill="#eb21f4" font-size="35" font-family="AcuminPro-Bold, Acumin Pro" font-weight="700"><tspan x="-41.16" y="0">3000</tspan></text>
    <text id="_3000-2" data-name="3000" transform="translate(316.129 363.112)" fill="#eb21f4" font-size="35" font-family="AcuminPro-Bold, Acumin Pro" font-weight="700"><tspan x="-41.16" y="0">3000</tspan></text>
    <g id="Ellipse_24" data-name="Ellipse 24" transform="translate(427.818 309.011)" fill="#eb21f4" stroke="#707070" stroke-width="1">
      <circle cx="10.7" cy="10.7" r="10.7" stroke="none"/>
      <circle cx="10.7" cy="10.7" r="10.2" fill="none"/>
    </g>
    <g id="Ellipse_25" data-name="Ellipse 25" transform="translate(305.359 309.011)" fill="#eb21f4" stroke="#707070" stroke-width="1">
      <circle cx="10.7" cy="10.7" r="10.7" stroke="none"/>
      <circle cx="10.7" cy="10.7" r="10.2" fill="none"/>
    </g>
    <line id="Line_11" data-name="Line 11" x2="120.082" transform="translate(313.087 320.306)" fill="none" stroke="#bebebe" stroke-width="5"/>
    <text id="同じネットワーク空間にいるので_お互いに接続可能" data-name="同じネットワーク空間にいるので
お互いに接続可能" transform="translate(405 404)" fill="#eb21f4" font-size="30" font-family="PingFangSC-Semibold, PingFang SC" font-weight="600"><tspan x="-225" y="0">同じネットワーク空間にいるので</tspan><tspan y="0" font-family="AcuminPro-Bold, Acumin Pro" font-weight="700"></tspan><tspan x="-120" y="52">お互いに接続可能</tspan></text>
    <text id="container01" transform="translate(340.478 245.937)" fill="#3895d9" font-size="20" font-family="AcuminPro-Bold, Acumin Pro" font-weight="700"><tspan x="-54.38" y="0">container01</tspan></text>
    <text id="container02" transform="translate(467.478 244.937)" fill="#3895d9" font-size="20" font-family="AcuminPro-Bold, Acumin Pro" font-weight="700"><tspan x="-55.89" y="0">container02</tspan></text>
  </g>
</svg>
