<svg xmlns="http://www.w3.org/2000/svg" xmlns:xlink="http://www.w3.org/1999/xlink" width="763.239" height="434.46" viewBox="0 0 763.239 434.46">
  <defs>
    <clipPath id="clip-path">
      <rect width="763.239" height="434.46" fill="none"/>
    </clipPath>
    <filter id="Path_42" x="0" y="2" width="246.239" height="246.239" filterUnits="userSpaceOnUse">
      <feOffset dx="1" dy="1" input="SourceAlpha"/>
      <feGaussianBlur stdDeviation="0.5" result="blur"/>
      <feFlood flood-color="#3895d9"/>
      <feComposite operator="in" in2="blur"/>
      <feComposite in="SourceGraphic"/>
    </filter>
    <filter id="Path_58" x="258" y="0" width="246.239" height="246.239" filterUnits="userSpaceOnUse">
      <feOffset dx="1" dy="1" input="SourceAlpha"/>
      <feGaussianBlur stdDeviation="0.5" result="blur-2"/>
      <feFlood flood-color="#3895d9"/>
      <feComposite operator="in" in2="blur-2"/>
      <feComposite in="SourceGraphic"/>
    </filter>
    <filter id="Path_61" x="517" y="0" width="246.239" height="246.239" filterUnits="userSpaceOnUse">
      <feOffset dx="1" dy="1" input="SourceAlpha"/>
      <feGaussianBlur stdDeviation="0.5" result="blur-3"/>
      <feFlood flood-color="#3895d9"/>
      <feComposite operator="in" in2="blur-3"/>
      <feComposite in="SourceGraphic"/>
    </filter>
  </defs>
  <g id="Component_15_1" data-name="Component 15 – 1" clip-path="url(#clip-path)">
    <g transform="matrix(1, 0, 0, 1, 0, 0)" filter="url(#Path_42)">
      <g id="Path_42-2" data-name="Path 42" transform="translate(0.5 2.5)" fill="none">
        <path d="M121.62,0A121.62,121.62,0,1,1,0,121.62,121.62,121.62,0,0,1,121.62,0Z" stroke="none"/>
        <path d="M 121.61962890625 4.999984741210938 C 113.7038726806641 4.999984741210938 105.7945556640625 5.797164916992188 98.11141967773438 7.369338989257812 C 90.6260986328125 8.901092529296875 83.26327514648438 11.18663024902344 76.22755432128906 14.16249084472656 C 69.31845092773438 17.08480834960938 62.65420532226562 20.70205688476562 56.41998291015625 24.91384887695312 C 50.24369812011719 29.08645629882812 44.43562316894531 33.87858581542969 39.15708923339844 39.15708923339844 C 33.87858581542969 44.43562316894531 29.08645629882812 50.24369812011719 24.91384887695312 56.41998291015625 C 20.70205688476562 62.65420532226562 17.08480834960938 69.31845092773438 14.16249084472656 76.22755432128906 C 11.18663024902344 83.26327514648438 8.901092529296875 90.6260986328125 7.369338989257812 98.11141967773438 C 5.797164916992188 105.7945556640625 4.999984741210938 113.7038726806641 4.999984741210938 121.61962890625 C 4.999984741210938 129.5353698730469 5.797164916992188 137.4447021484375 7.369338989257812 145.1278381347656 C 8.901092529296875 152.6131896972656 11.18663024902344 159.9759826660156 14.16249084472656 167.0117034912109 C 17.08480834960938 173.9208374023438 20.70205688476562 180.5850524902344 24.91384887695312 186.8192749023438 C 29.08645629882812 192.9955596923828 33.87858581542969 198.8036193847656 39.15708923339844 204.0821685791016 C 44.43562316894531 209.3606567382812 50.24369812011719 214.1528015136719 56.41998291015625 218.3254089355469 C 62.65420532226562 222.5371704101562 69.31842041015625 226.1544494628906 76.22755432128906 229.0767364501953 C 83.26327514648438 232.0525970458984 90.6260986328125 234.338134765625 98.11141967773438 235.869873046875 C 105.7945556640625 237.4420623779297 113.7038726806641 238.2392425537109 121.61962890625 238.2392425537109 C 129.5353698730469 238.2392425537109 137.4447021484375 237.4420623779297 145.1278381347656 235.869873046875 C 152.6131896972656 234.338134765625 159.9759826660156 232.0525970458984 167.0117340087891 229.0767364501953 C 173.9208374023438 226.1544494628906 180.5850524902344 222.5371704101562 186.8192749023438 218.3254089355469 C 192.9955596923828 214.1528015136719 198.8036193847656 209.3606567382812 204.0821685791016 204.0821685791016 C 209.3606567382812 198.8036193847656 214.1528015136719 192.9955596923828 218.3254089355469 186.8192749023438 C 222.5371704101562 180.5850524902344 226.1544494628906 173.9208374023438 229.0767364501953 167.0117340087891 C 232.0525970458984 159.9759826660156 234.338134765625 152.6131896972656 235.869873046875 145.1278381347656 C 237.4420623779297 137.4447021484375 238.2392425537109 129.5353698730469 238.2392425537109 121.61962890625 C 238.2392425537109 113.7038726806641 237.4420623779297 105.7945556640625 235.869873046875 98.11141967773438 C 234.338134765625 90.6260986328125 232.0525970458984 83.26327514648438 229.0767364501953 76.22755432128906 C 226.1544494628906 69.31842041015625 222.5371704101562 62.65420532226562 218.3254089355469 56.41998291015625 C 214.1528015136719 50.24369812011719 209.3606567382812 44.43562316894531 204.0821685791016 39.15708923339844 C 198.8036193847656 33.87858581542969 192.9955596923828 29.08645629882812 186.8192749023438 24.91384887695312 C 180.5850524902344 20.70205688476562 173.9208374023438 17.08480834960938 167.0117034912109 14.16249084472656 C 159.9759826660156 11.18663024902344 152.6131896972656 8.901092529296875 145.1278381347656 7.369338989257812 C 137.4447021484375 5.797164916992188 129.5353698730469 4.999984741210938 121.61962890625 4.999984741210938 M 121.61962890625 -1.52587890625e-05 C 188.7882995605469 -1.52587890625e-05 243.2392425537109 54.45098876953125 243.2392425537109 121.61962890625 C 243.2392425537109 188.7882995605469 188.7882995605469 243.2392425537109 121.61962890625 243.2392425537109 C 54.45098876953125 243.2392425537109 -1.52587890625e-05 188.7882995605469 -1.52587890625e-05 121.61962890625 C -1.52587890625e-05 54.45098876953125 54.45098876953125 -1.52587890625e-05 121.61962890625 -1.52587890625e-05 Z" stroke="none" fill="#3895d9"/>
      </g>
    </g>
    <text id="default" transform="translate(120.535 84.134)" fill="#3895d9" font-size="22" font-family="AcuminPro-Bold, Acumin Pro" font-weight="700"><tspan x="-35.838" y="0">default</tspan></text>
    <g id="package-cube-box-for-delivery_1_" data-name="package-cube-box-for-delivery (1)" transform="translate(91.699 136.792)">
      <path id="Path_20" data-name="Path 20" d="M1.065,46.835,1,19.961a1.84,1.84,0,0,1,2.564-1.7L28.029,28.723a1.84,1.84,0,0,1,1.117,1.688l.064,26.874a1.84,1.84,0,0,1-2.564,1.7L2.181,48.523A1.84,1.84,0,0,1,1.065,46.835ZM57.118,21.226,34.542,31l.059,24.87L57.177,46.1l-.059-24.87m.914-3.242a1.842,1.842,0,0,1,1.844,1.838L59.939,46.7a1.84,1.84,0,0,1-1.109,1.693L34.415,58.963a1.836,1.836,0,0,1-2.572-1.684L31.78,30.4a1.84,1.84,0,0,1,1.109-1.693L57.3,18.137a1.835,1.835,0,0,1,.728-.154ZM30.291,2.847,6.872,13.3,30.34,23.649l12.982-5.8,10.437-4.66L30.291,2.847M30.285,0a1.841,1.841,0,0,1,.747.156L56.771,11.5a1.84,1.84,0,0,1,.008,3.364L31.093,26.336a1.84,1.84,0,0,1-1.493,0L3.861,14.993a1.84,1.84,0,0,1-.008-3.364L29.539.16A1.84,1.84,0,0,1,30.285,0Z" transform="translate(-1.001 0)" fill="#3895d9"/>
    </g>
    <text id="_01" data-name="01" transform="translate(120.83 130.379)" fill="#3895d9" font-size="22" font-family="AcuminPro-Bold, Acumin Pro" font-weight="700"><tspan x="-10.978" y="0">01</tspan></text>
    <g transform="matrix(1, 0, 0, 1, 0, 0)" filter="url(#Path_58)">
      <g id="Path_58-2" data-name="Path 58" transform="translate(258.5 0.5)" fill="none">
        <path d="M121.62,0A121.62,121.62,0,1,1,0,121.62,121.62,121.62,0,0,1,121.62,0Z" stroke="none"/>
        <path d="M 121.61962890625 4.999984741210938 C 113.7038726806641 4.999984741210938 105.7945556640625 5.797164916992188 98.11141967773438 7.369338989257812 C 90.6260986328125 8.901092529296875 83.26327514648438 11.18663024902344 76.22755432128906 14.16249084472656 C 69.31845092773438 17.08480834960938 62.65420532226562 20.70205688476562 56.41998291015625 24.91384887695312 C 50.24369812011719 29.08645629882812 44.43562316894531 33.87858581542969 39.15708923339844 39.15708923339844 C 33.87858581542969 44.43562316894531 29.08645629882812 50.24369812011719 24.91384887695312 56.41998291015625 C 20.70205688476562 62.65420532226562 17.08480834960938 69.31845092773438 14.16249084472656 76.22755432128906 C 11.18663024902344 83.26327514648438 8.901092529296875 90.6260986328125 7.369338989257812 98.11141967773438 C 5.797164916992188 105.7945556640625 4.999984741210938 113.7038726806641 4.999984741210938 121.61962890625 C 4.999984741210938 129.5353698730469 5.797164916992188 137.4447021484375 7.369338989257812 145.1278381347656 C 8.901092529296875 152.6131896972656 11.18663024902344 159.9759826660156 14.16249084472656 167.0117034912109 C 17.08480834960938 173.9208374023438 20.70205688476562 180.5850524902344 24.91384887695312 186.8192749023438 C 29.08645629882812 192.9955596923828 33.87858581542969 198.8036193847656 39.15708923339844 204.0821685791016 C 44.43562316894531 209.3606567382812 50.24369812011719 214.1528015136719 56.41998291015625 218.3254089355469 C 62.65420532226562 222.5371704101562 69.31842041015625 226.1544494628906 76.22755432128906 229.0767364501953 C 83.26327514648438 232.0525970458984 90.6260986328125 234.338134765625 98.11141967773438 235.869873046875 C 105.7945556640625 237.4420623779297 113.7038726806641 238.2392425537109 121.61962890625 238.2392425537109 C 129.5353698730469 238.2392425537109 137.4447021484375 237.4420623779297 145.1278381347656 235.869873046875 C 152.6131896972656 234.338134765625 159.9759826660156 232.0525970458984 167.0117340087891 229.0767364501953 C 173.9208374023438 226.1544494628906 180.5850524902344 222.5371704101562 186.8192749023438 218.3254089355469 C 192.9955596923828 214.1528015136719 198.8036193847656 209.3606567382812 204.0821685791016 204.0821685791016 C 209.3606567382812 198.8036193847656 214.1528015136719 192.9955596923828 218.3254089355469 186.8192749023438 C 222.5371704101562 180.5850524902344 226.1544494628906 173.9208374023438 229.0767364501953 167.0117340087891 C 232.0525970458984 159.9759826660156 234.338134765625 152.6131896972656 235.869873046875 145.1278381347656 C 237.4420623779297 137.4447021484375 238.2392425537109 129.5353698730469 238.2392425537109 121.61962890625 C 238.2392425537109 113.7038726806641 237.4420623779297 105.7945556640625 235.869873046875 98.11141967773438 C 234.338134765625 90.6260986328125 232.0525970458984 83.26327514648438 229.0767364501953 76.22755432128906 C 226.1544494628906 69.31842041015625 222.5371704101562 62.65420532226562 218.3254089355469 56.41998291015625 C 214.1528015136719 50.24369812011719 209.3606567382812 44.43562316894531 204.0821685791016 39.15708923339844 C 198.8036193847656 33.87858581542969 192.9955596923828 29.08645629882812 186.8192749023438 24.91384887695312 C 180.5850524902344 20.70205688476562 173.9208374023438 17.08480834960938 167.0117034912109 14.16249084472656 C 159.9759826660156 11.18663024902344 152.6131896972656 8.901092529296875 145.1278381347656 7.369338989257812 C 137.4447021484375 5.797164916992188 129.5353698730469 4.999984741210938 121.61962890625 4.999984741210938 M 121.61962890625 -1.52587890625e-05 C 188.7882995605469 -1.52587890625e-05 243.2392425537109 54.45098876953125 243.2392425537109 121.61962890625 C 243.2392425537109 188.7882995605469 188.7882995605469 243.2392425537109 121.61962890625 243.2392425537109 C 54.45098876953125 243.2392425537109 -1.52587890625e-05 188.7882995605469 -1.52587890625e-05 121.61962890625 C -1.52587890625e-05 54.45098876953125 54.45098876953125 -1.52587890625e-05 121.61962890625 -1.52587890625e-05 Z" stroke="none" fill="#3895d9"/>
      </g>
    </g>
    <text id="net01" transform="translate(378.535 82.134)" fill="#3895d9" font-size="22" font-family="AcuminPro-Bold, Acumin Pro" font-weight="700"><tspan x="-27.599" y="0">net01</tspan></text>
    <g id="package-cube-box-for-delivery_1_2" data-name="package-cube-box-for-delivery (1)" transform="translate(317.699 136.792)">
      <path id="Path_20-2" data-name="Path 20" d="M1.065,46.835,1,19.961a1.84,1.84,0,0,1,2.564-1.7L28.029,28.723a1.84,1.84,0,0,1,1.117,1.688l.064,26.874a1.84,1.84,0,0,1-2.564,1.7L2.181,48.523A1.84,1.84,0,0,1,1.065,46.835ZM57.118,21.226,34.542,31l.059,24.87L57.177,46.1l-.059-24.87m.914-3.242a1.842,1.842,0,0,1,1.844,1.838L59.939,46.7a1.84,1.84,0,0,1-1.109,1.693L34.415,58.963a1.836,1.836,0,0,1-2.572-1.684L31.78,30.4a1.84,1.84,0,0,1,1.109-1.693L57.3,18.137a1.835,1.835,0,0,1,.728-.154ZM30.291,2.847,6.872,13.3,30.34,23.649l12.982-5.8,10.437-4.66L30.291,2.847M30.285,0a1.841,1.841,0,0,1,.747.156L56.771,11.5a1.84,1.84,0,0,1,.008,3.364L31.093,26.336a1.84,1.84,0,0,1-1.493,0L3.861,14.993a1.84,1.84,0,0,1-.008-3.364L29.539.16A1.84,1.84,0,0,1,30.285,0Z" transform="translate(-1.001 0)" fill="#3895d9"/>
    </g>
    <text id="_02" data-name="02" transform="translate(346.83 130.379)" fill="#3895d9" font-size="22" font-family="AcuminPro-Bold, Acumin Pro" font-weight="700"><tspan x="-12.639" y="0">02</tspan></text>
    <g id="package-cube-box-for-delivery_1_3" data-name="package-cube-box-for-delivery (1)" transform="translate(383.699 136.792)">
      <path id="Path_20-3" data-name="Path 20" d="M1.065,46.835,1,19.961a1.84,1.84,0,0,1,2.564-1.7L28.029,28.723a1.84,1.84,0,0,1,1.117,1.688l.064,26.874a1.84,1.84,0,0,1-2.564,1.7L2.181,48.523A1.84,1.84,0,0,1,1.065,46.835ZM57.118,21.226,34.542,31l.059,24.87L57.177,46.1l-.059-24.87m.914-3.242a1.842,1.842,0,0,1,1.844,1.838L59.939,46.7a1.84,1.84,0,0,1-1.109,1.693L34.415,58.963a1.836,1.836,0,0,1-2.572-1.684L31.78,30.4a1.84,1.84,0,0,1,1.109-1.693L57.3,18.137a1.835,1.835,0,0,1,.728-.154ZM30.291,2.847,6.872,13.3,30.34,23.649l12.982-5.8,10.437-4.66L30.291,2.847M30.285,0a1.841,1.841,0,0,1,.747.156L56.771,11.5a1.84,1.84,0,0,1,.008,3.364L31.093,26.336a1.84,1.84,0,0,1-1.493,0L3.861,14.993a1.84,1.84,0,0,1-.008-3.364L29.539.16A1.84,1.84,0,0,1,30.285,0Z" transform="translate(-1.001 0)" fill="#3895d9"/>
    </g>
    <text id="_03" data-name="03" transform="translate(412.83 130.379)" fill="#3895d9" font-size="22" font-family="AcuminPro-Bold, Acumin Pro" font-weight="700"><tspan x="-12.716" y="0">03</tspan></text>
    <g transform="matrix(1, 0, 0, 1, 0, 0)" filter="url(#Path_61)">
      <g id="Path_61-2" data-name="Path 61" transform="translate(517.5 0.5)" fill="none">
        <path d="M121.62,0A121.62,121.62,0,1,1,0,121.62,121.62,121.62,0,0,1,121.62,0Z" stroke="none"/>
        <path d="M 121.61962890625 4.999984741210938 C 113.7038726806641 4.999984741210938 105.7945556640625 5.797164916992188 98.11141967773438 7.369338989257812 C 90.6260986328125 8.901092529296875 83.26327514648438 11.18663024902344 76.22755432128906 14.16249084472656 C 69.31845092773438 17.08480834960938 62.65420532226562 20.70205688476562 56.41998291015625 24.91384887695312 C 50.24369812011719 29.08645629882812 44.43562316894531 33.87858581542969 39.15708923339844 39.15708923339844 C 33.87858581542969 44.43562316894531 29.08645629882812 50.24369812011719 24.91384887695312 56.41998291015625 C 20.70205688476562 62.65420532226562 17.08480834960938 69.31845092773438 14.16249084472656 76.22755432128906 C 11.18663024902344 83.26327514648438 8.901092529296875 90.6260986328125 7.369338989257812 98.11141967773438 C 5.797164916992188 105.7945556640625 4.999984741210938 113.7038726806641 4.999984741210938 121.61962890625 C 4.999984741210938 129.5353698730469 5.797164916992188 137.4447021484375 7.369338989257812 145.1278381347656 C 8.901092529296875 152.6131896972656 11.18663024902344 159.9759826660156 14.16249084472656 167.0117034912109 C 17.08480834960938 173.9208374023438 20.70205688476562 180.5850524902344 24.91384887695312 186.8192749023438 C 29.08645629882812 192.9955596923828 33.87858581542969 198.8036193847656 39.15708923339844 204.0821685791016 C 44.43562316894531 209.3606567382812 50.24369812011719 214.1528015136719 56.41998291015625 218.3254089355469 C 62.65420532226562 222.5371704101562 69.31842041015625 226.1544494628906 76.22755432128906 229.0767364501953 C 83.26327514648438 232.0525970458984 90.6260986328125 234.338134765625 98.11141967773438 235.869873046875 C 105.7945556640625 237.4420623779297 113.7038726806641 238.2392425537109 121.61962890625 238.2392425537109 C 129.5353698730469 238.2392425537109 137.4447021484375 237.4420623779297 145.1278381347656 235.869873046875 C 152.6131896972656 234.338134765625 159.9759826660156 232.0525970458984 167.0117340087891 229.0767364501953 C 173.9208374023438 226.1544494628906 180.5850524902344 222.5371704101562 186.8192749023438 218.3254089355469 C 192.9955596923828 214.1528015136719 198.8036193847656 209.3606567382812 204.0821685791016 204.0821685791016 C 209.3606567382812 198.8036193847656 214.1528015136719 192.9955596923828 218.3254089355469 186.8192749023438 C 222.5371704101562 180.5850524902344 226.1544494628906 173.9208374023438 229.0767364501953 167.0117340087891 C 232.0525970458984 159.9759826660156 234.338134765625 152.6131896972656 235.869873046875 145.1278381347656 C 237.4420623779297 137.4447021484375 238.2392425537109 129.5353698730469 238.2392425537109 121.61962890625 C 238.2392425537109 113.7038726806641 237.4420623779297 105.7945556640625 235.869873046875 98.11141967773438 C 234.338134765625 90.6260986328125 232.0525970458984 83.26327514648438 229.0767364501953 76.22755432128906 C 226.1544494628906 69.31842041015625 222.5371704101562 62.65420532226562 218.3254089355469 56.41998291015625 C 214.1528015136719 50.24369812011719 209.3606567382812 44.43562316894531 204.0821685791016 39.15708923339844 C 198.8036193847656 33.87858581542969 192.9955596923828 29.08645629882812 186.8192749023438 24.91384887695312 C 180.5850524902344 20.70205688476562 173.9208374023438 17.08480834960938 167.0117034912109 14.16249084472656 C 159.9759826660156 11.18663024902344 152.6131896972656 8.901092529296875 145.1278381347656 7.369338989257812 C 137.4447021484375 5.797164916992188 129.5353698730469 4.999984741210938 121.61962890625 4.999984741210938 M 121.61962890625 -1.52587890625e-05 C 188.7882995605469 -1.52587890625e-05 243.2392425537109 54.45098876953125 243.2392425537109 121.61962890625 C 243.2392425537109 188.7882995605469 188.7882995605469 243.2392425537109 121.61962890625 243.2392425537109 C 54.45098876953125 243.2392425537109 -1.52587890625e-05 188.7882995605469 -1.52587890625e-05 121.61962890625 C -1.52587890625e-05 54.45098876953125 54.45098876953125 -1.52587890625e-05 121.61962890625 -1.52587890625e-05 Z" stroke="none" fill="#3895d9"/>
      </g>
    </g>
    <text id="net02" transform="translate(637.535 82.134)" fill="#3895d9" font-size="22" font-family="AcuminPro-Bold, Acumin Pro" font-weight="700"><tspan x="-29.26" y="0">net02</tspan></text>
    <g id="package-cube-box-for-delivery_1_4" data-name="package-cube-box-for-delivery (1)" transform="translate(576.699 136.792)">
      <path id="Path_20-4" data-name="Path 20" d="M1.065,46.835,1,19.961a1.84,1.84,0,0,1,2.564-1.7L28.029,28.723a1.84,1.84,0,0,1,1.117,1.688l.064,26.874a1.84,1.84,0,0,1-2.564,1.7L2.181,48.523A1.84,1.84,0,0,1,1.065,46.835ZM57.118,21.226,34.542,31l.059,24.87L57.177,46.1l-.059-24.87m.914-3.242a1.842,1.842,0,0,1,1.844,1.838L59.939,46.7a1.84,1.84,0,0,1-1.109,1.693L34.415,58.963a1.836,1.836,0,0,1-2.572-1.684L31.78,30.4a1.84,1.84,0,0,1,1.109-1.693L57.3,18.137a1.835,1.835,0,0,1,.728-.154ZM30.291,2.847,6.872,13.3,30.34,23.649l12.982-5.8,10.437-4.66L30.291,2.847M30.285,0a1.841,1.841,0,0,1,.747.156L56.771,11.5a1.84,1.84,0,0,1,.008,3.364L31.093,26.336a1.84,1.84,0,0,1-1.493,0L3.861,14.993a1.84,1.84,0,0,1-.008-3.364L29.539.16A1.84,1.84,0,0,1,30.285,0Z" transform="translate(-1.001 0)" fill="#3895d9"/>
    </g>
    <text id="_03-2" data-name="03" transform="translate(605.83 130.378)" fill="#3895d9" font-size="22" font-family="AcuminPro-Bold, Acumin Pro" font-weight="700"><tspan x="-12.716" y="0">03</tspan></text>
    <g id="package-cube-box-for-delivery_1_5" data-name="package-cube-box-for-delivery (1)" transform="translate(642.699 136.792)">
      <path id="Path_20-5" data-name="Path 20" d="M1.065,46.835,1,19.961a1.84,1.84,0,0,1,2.564-1.7L28.029,28.723a1.84,1.84,0,0,1,1.117,1.688l.064,26.874a1.84,1.84,0,0,1-2.564,1.7L2.181,48.523A1.84,1.84,0,0,1,1.065,46.835ZM57.118,21.226,34.542,31l.059,24.87L57.177,46.1l-.059-24.87m.914-3.242a1.842,1.842,0,0,1,1.844,1.838L59.939,46.7a1.84,1.84,0,0,1-1.109,1.693L34.415,58.963a1.836,1.836,0,0,1-2.572-1.684L31.78,30.4a1.84,1.84,0,0,1,1.109-1.693L57.3,18.137a1.835,1.835,0,0,1,.728-.154ZM30.291,2.847,6.872,13.3,30.34,23.649l12.982-5.8,10.437-4.66L30.291,2.847M30.285,0a1.841,1.841,0,0,1,.747.156L56.771,11.5a1.84,1.84,0,0,1,.008,3.364L31.093,26.336a1.84,1.84,0,0,1-1.493,0L3.861,14.993a1.84,1.84,0,0,1-.008-3.364L29.539.16A1.84,1.84,0,0,1,30.285,0Z" transform="translate(-1.001 0)" fill="#3895d9"/>
    </g>
    <text id="_04" data-name="04" transform="translate(671.83 130.378)" fill="#3895d9" font-size="22" font-family="AcuminPro-Bold, Acumin Pro" font-weight="700"><tspan x="-12.925" y="0">04</tspan></text>
    <g id="Group_8" data-name="Group 8" transform="translate(1054.5 -3565.052)">
      <line id="Line_15" data-name="Line 15" x2="74.717" transform="translate(-726.109 3739.946)" fill="none" stroke="#969696" stroke-width="5"/>
      <text id="接続可" transform="translate(-690.972 3762.925)" fill="#eb21f4" font-size="15" font-family="PingFangSC-Semibold, PingFang SC" font-weight="600"><tspan x="-22.5" y="0">接続可</tspan></text>
      <path id="Path_47" data-name="Path 47" d="M-638.522,3720.5" transform="translate(-16.173 18.625)" fill="none" stroke="#707070" stroke-width="1"/>
      <text id="_3000" data-name="3000" transform="translate(-741.025 3755.746)" fill="#eb21f4" font-size="11" font-family="AcuminPro-Bold, Acumin Pro" font-weight="700"><tspan x="-12.936" y="0">3000</tspan></text>
      <text id="_3000-2" data-name="3000" transform="translate(-638.392 3759.852)" fill="#eb21f4" font-size="11" font-family="AcuminPro-Bold, Acumin Pro" font-weight="700"><tspan x="-12.936" y="0">3000</tspan></text>
      <g id="Ellipse_29" data-name="Ellipse 29" transform="translate(-732.267 3735.43)" fill="#eb21f4" stroke="#eb21f4" stroke-width="1">
        <circle cx="4.926" cy="4.926" r="4.926" stroke="none"/>
        <circle cx="4.926" cy="4.926" r="4.426" fill="none"/>
      </g>
      <g id="Ellipse_30" data-name="Ellipse 30" transform="translate(-656.729 3735.43)" fill="#eb21f4" stroke="#eb21f4" stroke-width="1">
        <circle cx="4.926" cy="4.926" r="4.926" stroke="none"/>
        <circle cx="4.926" cy="4.926" r="4.426" fill="none"/>
      </g>
    </g>
    <g id="Group_9" data-name="Group 9" transform="translate(1312.5 -3565.052)">
      <line id="Line_15-2" data-name="Line 15" x2="74.717" transform="translate(-726.109 3739.946)" fill="none" stroke="#969696" stroke-width="5"/>
      <text id="接続可-2" data-name="接続可" transform="translate(-690.972 3762.925)" fill="#eb21f4" font-size="15" font-family="PingFangSC-Semibold, PingFang SC" font-weight="600"><tspan x="-22.5" y="0">接続可</tspan></text>
      <path id="Path_47-2" data-name="Path 47" d="M-638.522,3720.5" transform="translate(-16.173 18.625)" fill="none" stroke="#707070" stroke-width="1"/>
      <text id="_3000-3" data-name="3000" transform="translate(-741.025 3755.746)" fill="#eb21f4" font-size="11" font-family="AcuminPro-Bold, Acumin Pro" font-weight="700"><tspan x="-12.936" y="0">3000</tspan></text>
      <text id="_3000-4" data-name="3000" transform="translate(-638.392 3759.852)" fill="#eb21f4" font-size="11" font-family="AcuminPro-Bold, Acumin Pro" font-weight="700"><tspan x="-12.936" y="0">3000</tspan></text>
      <g id="Ellipse_29-2" data-name="Ellipse 29" transform="translate(-732.267 3735.43)" fill="#eb21f4" stroke="#eb21f4" stroke-width="1">
        <circle cx="4.926" cy="4.926" r="4.926" stroke="none"/>
        <circle cx="4.926" cy="4.926" r="4.426" fill="none"/>
      </g>
      <g id="Ellipse_30-2" data-name="Ellipse 30" transform="translate(-656.729 3735.43)" fill="#eb21f4" stroke="#eb21f4" stroke-width="1">
        <circle cx="4.926" cy="4.926" r="4.926" stroke="none"/>
        <circle cx="4.926" cy="4.926" r="4.426" fill="none"/>
      </g>
    </g>
    <text id="_container03はnet01とnet02の両方に所属_わかりやすくするために2個記述しているが_コンテナは一つ" data-name="
container03はnet01とnet02の両方に所属
※わかりやすくするために2個記述しているが、コンテナは一つ" transform="translate(246.5 229.46)" fill="#eb21f4" font-size="22" font-family="AcuminPro-Bold, Acumin Pro" font-weight="700"><tspan x="0" y="16"></tspan><tspan x="0" y="53">container03</tspan><tspan y="53" font-family="PingFangSC-Semibold, PingFang SC" font-weight="600">は</tspan><tspan y="53">net01</tspan><tspan y="53" font-family="PingFangSC-Semibold, PingFang SC" font-weight="600">と</tspan><tspan y="53">net02</tspan><tspan y="53" font-family="PingFangSC-Semibold, PingFang SC" font-weight="600">の</tspan><tspan x="0" y="90" font-family="PingFangSC-Semibold, PingFang SC" font-weight="600">両方に所属</tspan><tspan y="90"></tspan><tspan font-size="15" font-family="LucidaGrande-Bold, Lucida Grande"><tspan x="0" y="120">※</tspan><tspan y="120" font-family="PingFangSC-Semibold, PingFang SC" font-weight="600">わかりやすくするために</tspan><tspan y="120" font-family="AcuminPro-Bold, Acumin Pro">2</tspan><tspan y="120" font-family="PingFangSC-Semibold, PingFang SC" font-weight="600">個記述している</tspan><tspan x="0" y="146" font-family="PingFangSC-Semibold, PingFang SC" font-weight="600">が、コンテナは一つ</tspan></tspan></text>
  </g>
</svg>
